<?xml version="1.0" standalone="no"?>
<!DOCTYPE svg PUBLIC "-//W3C//DTD SVG 1.1//EN" "http://www.w3.org/Graphics/SVG/1.1/DTD/svg11.dtd" >
<svg xmlns="http://www.w3.org/2000/svg" xmlns:xlink="http://www.w3.org/1999/xlink" version="1.1">
<metadata>
Created by FontForge 20161013 at Tue Aug 21 15:13:31 2012
 By ,,,
2009 Tobias Kvant published by FSI FontShop International GmbH
</metadata>
<defs>
<font id="EnzoOffc-Thin" horiz-adv-x="680" >
  <font-face 
    font-family="Enzo Offc Thin"
    font-weight="250"
    font-stretch="normal"
    units-per-em="1000"
    panose-1="2 11 4 4 2 1 1 1 1 2"
    ascent="828"
    descent="-172"
    x-height="506"
    cap-height="700"
    bbox="-627 -204 1325 935"
    underline-thickness="20"
    underline-position="-130"
    unicode-range="U+0020-FEFF"
  />
<missing-glyph horiz-adv-x="505" 
d="M61 700h383v-700h-383v700zM424 19v662h-343v-662h343z" />
    <glyph glyph-name=".notdef" horiz-adv-x="505" 
d="M61 700h383v-700h-383v700zM424 19v662h-343v-662h343z" />
    <glyph glyph-name=".null" horiz-adv-x="0" 
 />
    <glyph glyph-name="nonmarkingreturn" horiz-adv-x="200" 
 />
    <glyph glyph-name="space" unicode=" " horiz-adv-x="200" 
 />
    <glyph glyph-name="exclam" unicode="!" horiz-adv-x="211" 
d="M105 150q0 46 -0.5 99.5t-1 109t-0.5 109t-0.5 99t-1 80t-0.5 51.5l24 4v-49q0 -34 -0.5 -80t-1 -100.5t-1 -111t-1 -111t-0.5 -100.5h-16zM113 -3q-23 0 -23 24q0 23 23 23t23 -23q0 -24 -23 -24z" />
    <glyph glyph-name="quotedbl" unicode="&#x22;" horiz-adv-x="234" 
d="M46 405q0 39 -1 86.5t-1.5 92.5t-1 81.5t-0.5 52.5h24q0 -16 -0.5 -52.5t-1 -81.5t-1.5 -92.5t-1 -86.5h-16zM172 405q0 39 -1 86.5t-1.5 92.5t-1 81.5t-0.5 52.5h24q0 -16 -0.5 -52.5t-1 -81.5t-1.5 -92.5t-1 -86.5h-16z" />
    <glyph glyph-name="numbersign" unicode="#" 
d="M348 0l41 195h-165l-41 -195h-21l41 195h-168l4 19h168q14 69 29.5 136.5t29.5 136.5h-168l4 19h168l41 194h21l-42 -194h166l41 194h21l-41 -194h168l-4 -19h-168q-14 -69 -29 -136.5t-29 -136.5h167l-4 -19h-168l-41 -195h-21zM452 487h-167l-57 -273h166z" />
    <glyph glyph-name="dollar" unicode="$" 
d="M333 -117v105q-68 2 -130 16.5t-109 46.5l11 17q48 -32 111.5 -46.5t136.5 -14.5q43 0 81.5 9t68 29.5t47 54t17.5 82.5q0 39 -18.5 65.5t-48.5 45t-68.5 31t-78.5 23.5q-44 12 -86 25.5t-75 34t-53.5 51.5t-20.5 78q0 48 18 81.5t47.5 54t68.5 30t81 10.5v105h20v-105
q45 -1 91 -7.5t94 -29.5l-10 -17q-45 21 -90.5 28t-96.5 7q-41 0 -78 -8t-64.5 -26.5t-44 -48.5t-16.5 -74q0 -41 17.5 -68t47.5 -45.5t70 -31.5t86 -25q41 -11 82 -24.5t73.5 -34t52.5 -50.5t20 -75q0 -54 -19.5 -91t-51.5 -59.5t-74.5 -33t-88.5 -10.5v-105h-20z" />
    <glyph glyph-name="percent" unicode="%" horiz-adv-x="965" 
d="M727 7q86 0 122 52t36 163q0 112 -36 164t-122 52t-122 -52t-36 -164q0 -111 36 -163t122 -52zM727 -12q-96 0 -137 57.5t-41 176.5q0 120 41 177.5t137 57.5t137 -57.5t41 -177.5q0 -119 -41 -176.5t-137 -57.5zM238 262q86 0 122 52t36 163q0 112 -36 164t-122 52
t-122 -52t-36 -164q0 -111 36 -163t122 -52zM238 243q-96 0 -137 57.5t-41 176.5q0 120 41 177.5t137 57.5t137 -57.5t41 -177.5q0 -119 -41 -176.5t-137 -57.5zM324 4l297 700l18 -8l-297 -700z" />
    <glyph glyph-name="ampersand" unicode="&#x26;" horiz-adv-x="638" 
d="M268 0q-105 0 -160 44.5t-55 138.5q0 45 15 77.5t38.5 53.5t52.5 31q27 9 52 13q-26 3 -49 14q-24 11 -42.5 30.5t-29.5 47t-11 63.5q0 39 9.5 69.5t26.5 52.5t40.5 37t50.5 24l6 -19q-49 -16 -81 -54.5t-32 -109.5q0 -47 18 -75.5t45 -44.5t60 -21t63 -5h180v177l20 3
v-180l121 -4v-15h-121v-348h-217zM465 348h-182q-39 0 -76.5 -7t-67 -25.5t-48 -50.5t-18.5 -82q0 -84 49.5 -124t145.5 -40h197v329z" />
    <glyph glyph-name="quotesingle" unicode="'" horiz-adv-x="108" 
d="M46 405q0 39 -1 86.5t-1.5 92.5t-1 81.5t-0.5 52.5h24q0 -16 -0.5 -52.5t-1 -81.5t-1.5 -92.5t-1 -86.5h-16z" />
    <glyph glyph-name="parenleft" unicode="(" horiz-adv-x="266" 
d="M195 -145q-32 43 -58.5 90.5t-45.5 100.5t-29.5 113.5t-10.5 129.5t10.5 129.5t29.5 113.5t45.5 100t58.5 91l16 -12q-32 -42 -57.5 -88t-44 -98t-28.5 -110.5t-10 -125.5q0 -68 10 -126t28.5 -110t44 -98t57.5 -88z" />
    <glyph glyph-name="parenright" unicode=")" horiz-adv-x="266" 
d="M55 -133q31 42 57 88t44.5 98t28.5 110t10 126q0 67 -10 125.5t-28.5 110.5t-44.5 98t-57 88l16 12q32 -44 58.5 -91t45.5 -100t29.5 -113.5t10.5 -129.5t-10.5 -129.5t-29.5 -113.5t-45.5 -100.5t-58.5 -90.5z" />
    <glyph glyph-name="asterisk" unicode="*" horiz-adv-x="482" 
d="M350 330l-110 154l-109 -153l-18 12l113 152l-179 56l6 21l179 -60q-1 48 -1 100.5t-1 87.5h22q-1 -35 -1 -87.5t-1 -100.5l178 60l7 -21l-180 -57l112 -151z" />
    <glyph glyph-name="plus" unicode="+" 
d="M330 68v205h-224v19h224v224h20v-224h224v-19h-224v-205h-20z" />
    <glyph glyph-name="comma" unicode="," horiz-adv-x="190" 
d="M46 -140l74 308l23 1l-80 -309h-17z" />
    <glyph glyph-name="hyphen" unicode="-" horiz-adv-x="446" 
d="M72 272v20h302v-20h-302z" />
    <glyph glyph-name="period" unicode="." horiz-adv-x="190" 
d="M95 -3q-23 0 -23 24q0 23 23 23t23 -23q0 -24 -23 -24z" />
    <glyph glyph-name="slash" unicode="/" horiz-adv-x="283" 
d="M42 0l180 704l19 -5l-180 -703z" />
    <glyph glyph-name="zero" unicode="0" 
d="M340 7q131 0 189 83t58 260t-58 260t-189 83t-189 -83t-58 -260t58 -260t189 -83zM340 -12q-142 0 -204.5 88.5t-62.5 273.5t62.5 273.5t204.5 88.5t204.5 -88.5t62.5 -273.5t-62.5 -273.5t-204.5 -88.5z" />
    <glyph glyph-name="one" unicode="1" 
d="M145 667l228 33v-681h179v-19h-404v19h205v658l-205 -29z" />
    <glyph glyph-name="two" unicode="2" 
d="M528 514q0 37 -12.5 70t-38 57t-65.5 38t-94 14q-60 0 -110 -12.5t-92 -35.5l-9 18q92 49 211 49q59 0 102 -15.5t71.5 -42.5t42.5 -63t14 -77q0 -69 -32 -132.5t-87 -124t-129.5 -119.5t-158.5 -119h439v-19h-467l-5 19q87 62 163.5 121.5t133.5 119.5t90 123t33 131z
" />
    <glyph glyph-name="three" unicode="3" 
d="M337 -12q-72 0 -132.5 12t-111.5 38l9 18q94 -49 235 -49q57 0 99 16t69.5 43.5t41 63.5t13.5 75q0 37 -15.5 70.5t-48.5 58.5t-84 39.5t-121 14.5q-17 0 -31 -1t-29 -3l-10 22l295 275h-411v19h431l7 -20l-295 -274q10 1 21 1h22q76 0 130.5 -16t90 -44t52 -64.5
t16.5 -77.5q0 -43 -14.5 -82.5t-44.5 -69.5t-76 -47.5t-108 -17.5z" />
    <glyph glyph-name="four" unicode="4" 
d="M449 0v212h-349l-7 19q62 106 92 222t37 250l20 -4q-7 -134 -37 -248.5t-90 -219.5h334v307l20 3v-310h147v-19h-147v-212h-20z" />
    <glyph glyph-name="five" unicode="5" 
d="M341 -12q-72 0 -132.5 12t-110.5 38l9 18q94 -49 234 -49q58 0 100 16t69.5 43.5t40.5 63.5t13 75q0 41 -12.5 76t-40.5 61t-71.5 40.5t-105.5 14.5q-36 0 -85.5 -6.5t-109.5 -22.5l-12 15l34 317h362v-19h-344l-31 -290q106 25 186 25q67 0 114.5 -16t77.5 -44.5t44 -67
t14 -83.5q0 -43 -14.5 -82.5t-44.5 -69.5t-75.5 -47.5t-108.5 -17.5z" />
    <glyph glyph-name="six" unicode="6" 
d="M355 -12q-142 0 -204.5 88.5t-62.5 273.5q0 186 69 274t192 88q49 0 95.5 -7t89.5 -30l-11 -17q-39 20 -82.5 27.5t-91.5 7.5q-115 0 -178 -84t-63 -259v-12q54 70 122.5 99t143.5 29q49 0 91.5 -15.5t74 -44t49.5 -69.5t18 -92q0 -54 -14.5 -101t-45 -81.5t-78 -54.5
t-114.5 -20zM355 7q62 0 106 18.5t72 50.5t41 75.5t13 93.5q0 46 -16.5 83.5t-45.5 64t-67.5 40.5t-83.5 14q-76 0 -142.5 -31.5t-122.5 -106.5q3 -73 17 -129.5t43 -94.5t74.5 -58t111.5 -20z" />
    <glyph glyph-name="seven" unicode="7" 
d="M265 0q0 213 77.5 380.5t222.5 300.5h-462v19h485l6 -19q-150 -131 -229.5 -299t-79.5 -382h-20z" />
    <glyph glyph-name="eight" unicode="8" 
d="M441 339q67 -17 109 -56t42 -103q0 -42 -15.5 -77.5t-47 -61t-79 -39.5t-110.5 -14q-64 0 -111.5 16.5t-79 44.5t-47 65t-15.5 78q0 58 35.5 103.5t110.5 69.5q-27 9 -51.5 23t-42.5 34t-29 46.5t-11 60.5q0 38 15 71.5t45.5 58t75.5 39t105 14.5t105 -16t75.5 -43
t45.5 -62t15 -73q0 -57 -32.5 -103.5t-107.5 -75.5zM260 355q-78 -20 -115.5 -63t-37.5 -100q0 -38 14.5 -71.5t43.5 -58.5t72.5 -40t102.5 -15t102.5 13t72.5 36t43 54.5t14 69.5q0 36 -15.5 62t-40.5 43.5t-56 28t-61 15.5q-35 6 -72 12t-67 14zM412 347q80 26 114.5 70.5
t34.5 100.5q0 34 -13.5 65.5t-41.5 56t-69.5 39t-96.5 14.5q-56 0 -97 -13t-69 -35.5t-41.5 -52t-13.5 -63.5q0 -32 11 -57t28.5 -43t39.5 -29.5t44 -18.5q38 -12 84 -19t86 -15z" />
    <glyph glyph-name="nine" unicode="9" 
d="M157 42q39 -20 82.5 -27.5t91.5 -7.5q115 0 178 83.5t63 259.5v12q-54 -70 -122.5 -99t-143.5 -29q-49 0 -91.5 15.5t-74 44t-49.5 69.5t-18 92q0 54 14.5 101t45 81.5t78 54.5t114.5 20q142 0 204.5 -88.5t62.5 -273.5q0 -186 -69 -274t-192 -88q-49 0 -95.5 7t-89.5 30
zM571 391q-3 73 -17 129.5t-43 94.5t-74.5 58t-111.5 20q-62 0 -106 -18.5t-72 -50.5t-41 -75.5t-13 -93.5q0 -47 16.5 -84t45.5 -63.5t67.5 -40.5t83.5 -14q76 0 142.5 31.5t122.5 106.5z" />
    <glyph glyph-name="colon" unicode=":" horiz-adv-x="190" 
d="M95 338q-23 0 -23 24q0 23 23 23t23 -23q0 -24 -23 -24zM95 -3q-23 0 -23 24q0 23 23 23t23 -23q0 -24 -23 -24z" />
    <glyph glyph-name="semicolon" unicode=";" horiz-adv-x="190" 
d="M124 338q-23 0 -23 24q0 23 23 23t23 -23q0 -24 -23 -24zM43 -140l74 308l23 1l-80 -309h-17z" />
    <glyph glyph-name="less" unicode="&#x3c;" 
d="M105 258v22l460 213l10 -18l-446 -206l446 -206l-10 -18z" />
    <glyph glyph-name="equal" unicode="=" 
d="M106 367v19h468v-19h-468zM106 178v19h468v-19h-468z" />
    <glyph glyph-name="greater" unicode="&#x3e;" 
d="M115 45l-10 18l446 206l-446 206l10 18l459 -213v-22z" />
    <glyph glyph-name="question" unicode="?" horiz-adv-x="465" 
d="M183 150v30q0 19 -0.5 40.5t-1 43.5t-0.5 42q58 7 100 25t69.5 42t41 53t13.5 60q0 42 -19 79.5t-55 66t-88 45t-119 16.5q-22 0 -50 -3l2 20q12 2 24 2h24q72 0 128 -18.5t94.5 -49.5t58.5 -72t20 -86q0 -33 -13.5 -64.5t-41 -58t-70 -46t-99.5 -28.5q0 -17 -0.5 -36.5
t-1 -38.5t-0.5 -36v-28h-16zM191 -3q-23 0 -23 24q0 23 23 23t23 -23q0 -24 -23 -24z" />
    <glyph glyph-name="at" unicode="@" horiz-adv-x="879" 
d="M614 510q-37 14 -76 21t-80 7q-37 0 -74.5 -11t-68 -44.5t-49.5 -94.5t-19 -161q0 -38 7.5 -71t24 -57.5t42 -38.5t60.5 -14q39 0 67 9.5t49.5 27t39.5 42.5t37 56zM645 -75q-45 -40 -111.5 -58.5t-150.5 -18.5q-79 0 -139 22t-101 70t-62 123.5t-21 183.5q0 140 34 230
t92.5 142.5t136.5 72.5t166 20q92 0 155 -24.5t102 -68t56 -103.5t17 -130q0 -87 -18 -149t-50.5 -103.5t-77.5 -65t-100 -32.5q-1 20 -1 50t-1 56q-15 -25 -32.5 -46t-40 -36.5t-51 -24t-67.5 -8.5q-41 0 -69.5 15.5t-47.5 42.5t-27.5 63t-8.5 78q0 107 21 172t55 100.5
t75.5 47t82.5 11.5q45 0 89 -8.5t86 -25.5l-45 -369v-94q44 10 82 32.5t66 60.5t44 95t16 138q0 67 -16 123.5t-52.5 97t-95.5 63.5t-146 23q-84 0 -158.5 -19t-130 -69t-88 -136.5t-32.5 -221.5q0 -103 19.5 -175t58 -117.5t95 -66.5t130.5 -21q81 0 145 18.5t106 57.5z
" />
    <glyph glyph-name="A" unicode="A" horiz-adv-x="535" 
d="M488 -3l-65 197h-312l-64 -194h-21l230 699l21 3l230 -699zM267 670l-150 -457h300z" />
    <glyph glyph-name="B" unicode="B" horiz-adv-x="544" 
d="M75 692q37 8 78.5 14t83.5 6q47 0 91 -9t78 -32t54.5 -61.5t20.5 -96.5q0 -36 -11 -63.5t-29.5 -47t-43 -30.5t-50.5 -14q26 -4 54 -13q29 -10 52.5 -31t38.5 -53.5t15 -77.5q0 -94 -55 -138.5t-160 -44.5h-217v692zM292 19q96 0 145.5 40t49.5 124q0 50 -18.5 82
t-48 50.5t-67 25.5t-76.5 7h-182v-329h197zM275 367q30 0 63 5t60 21t45 44.5t18 75.5q0 52 -18.5 86.5t-49 55.5t-71 29.5t-84.5 8.5q-36 0 -72.5 -5t-70.5 -13v-308h180z" />
    <glyph glyph-name="C" unicode="C" horiz-adv-x="546" 
d="M494 33q-60 -45 -165 -45q-71 0 -122 22t-83.5 66.5t-47.5 112.5t-15 161t15 161t47.5 112.5t83.5 66.5t122 22q105 0 165 -45l-11 -18q-58 44 -154 44q-132 0 -190 -83.5t-58 -259.5t58 -259.5t190 -83.5q96 0 154 44z" />
    <glyph glyph-name="D" unicode="D" horiz-adv-x="628" 
d="M75 692q57 9 111.5 14.5t105.5 5.5q59 0 109.5 -14.5t87 -54t57.5 -110.5t21 -183q0 -98 -17 -165t-51 -108t-86 -59t-122 -18h-216v692zM291 19q65 0 113 16.5t80 55.5t47.5 102.5t15.5 156.5q0 107 -19.5 174t-53.5 104.5t-80.5 51t-101.5 13.5q-46 0 -96 -5t-101 -13
v-656h196z" />
    <glyph glyph-name="E" unicode="E" horiz-adv-x="498" 
d="M75 0v700h366v-19h-346v-297h287l-3 -19h-284v-346h346v-19h-366z" />
    <glyph glyph-name="F" unicode="F" horiz-adv-x="472" 
d="M74 0v700h366v-19h-346v-324h287l-3 -19h-284v-338h-20z" />
    <glyph glyph-name="G" unicode="G" horiz-adv-x="631" 
d="M572 32q-48 -23 -108.5 -33.5t-122.5 -10.5q-67 0 -119 17t-88 58t-54.5 111t-18.5 176q0 99 23 168t62 112t90.5 62.5t108.5 19.5q52 0 101 -8t93 -33l-10 -18q-41 23 -87.5 31.5t-96.5 8.5q-53 0 -101 -18.5t-84 -59.5t-57.5 -106t-21.5 -159q0 -101 17 -167t50 -105
t81.5 -55t111.5 -16q56 0 111 9t100 29v268h-221v19h241v-300z" />
    <glyph glyph-name="H" unicode="H" horiz-adv-x="581" 
d="M486 0v365h-391v-365h-20v700h20v-316h391v316h20v-700h-20z" />
    <glyph glyph-name="I" unicode="I" horiz-adv-x="170" 
d="M75 0v700h20v-700h-20z" />
    <glyph glyph-name="J" unicode="J" horiz-adv-x="209" 
d="M23 -131q26 13 43.5 33.5t28 45.5t15 53.5t4.5 58.5v640h20v-640q0 -32 -5 -63t-16.5 -58.5t-31 -50t-48.5 -37.5z" />
    <glyph glyph-name="K" unicode="K" horiz-adv-x="484" 
d="M95 353v-353h-20v700h20v-333l327 336l18 -9l-324 -334l346 -355l-17 -11z" />
    <glyph glyph-name="L" unicode="L" horiz-adv-x="487" 
d="M75 0v700h20v-681h357v-19h-377z" />
    <glyph glyph-name="M" unicode="M" horiz-adv-x="738" 
d="M55 0l54 700h21l239 -670l239 670h21l54 -700l-20 -2l-50 659l-234 -657h-21l-234 657l-49 -657h-20z" />
    <glyph glyph-name="N" unicode="N" horiz-adv-x="600" 
d="M504 0l-409 663v-663h-20v695l19 9l411 -668v664h20v-700h-21z" />
    <glyph glyph-name="O" unicode="O" horiz-adv-x="658" 
d="M329 -12q-71 0 -122 22t-83.5 66.5t-47.5 112.5t-15 161t15 161t47.5 112.5t83.5 66.5t122 22q142 0 205 -88.5t63 -273.5t-63 -273.5t-205 -88.5zM329 7q132 0 190 82.5t58 260.5t-58 260.5t-190 82.5t-190 -82.5t-58 -260.5t58 -260.5t190 -82.5z" />
    <glyph glyph-name="P" unicode="P" horiz-adv-x="527" 
d="M75 0v692q88 20 164 20q58 0 107 -13t85 -41.5t56 -74t20 -110.5q0 -62 -21.5 -104.5t-59 -68.5t-87 -37t-104.5 -11q-70 0 -140 15v-267h-20zM95 287q36 -8 72 -12t68 -4q51 0 96.5 10t80 33.5t55 62.5t20.5 96q0 61 -19 103.5t-52.5 68t-78.5 37t-97 11.5q-35 0 -71 -5
t-74 -13v-388z" />
    <glyph glyph-name="Q" unicode="Q" horiz-adv-x="658" 
d="M455 -148q-36 27 -63.5 63t-42.5 74q-5 -1 -10 -1h-10q-71 0 -122 22t-83.5 66.5t-47.5 112.5t-15 161t15 161t47.5 112.5t83.5 66.5t122 22q142 0 205 -88.5t63 -273.5q0 -172 -54 -260.5t-173 -99.5q14 -35 39.5 -66.5t57.5 -55.5zM329 7q132 0 190 82.5t58 260.5
t-58 260.5t-190 82.5t-190 -82.5t-58 -260.5t58 -260.5t190 -82.5z" />
    <glyph glyph-name="R" unicode="R" horiz-adv-x="543" 
d="M321 278h-226v-278h-20v692q38 9 79.5 14.5t83.5 5.5q49 0 95 -10.5t81 -37t56 -70.5t21 -110q0 -50 -13 -85t-34.5 -59t-48.5 -37.5t-54 -19.5l161 -280l-19 -7zM286 297q40 0 73.5 11t58.5 34t39 58.5t14 83.5q0 61 -19 101.5t-51.5 64.5t-74.5 33.5t-87 9.5
q-37 0 -73.5 -5t-70.5 -13v-378h191z" />
    <glyph glyph-name="S" unicode="S" horiz-adv-x="535" 
d="M492 182q0 -54 -17.5 -91t-47 -60t-68 -33t-80.5 -10q-66 0 -128.5 15.5t-108.5 49.5l12 16q44 -32 103 -47t122 -15q38 0 73 9t61.5 29.5t42.5 54t16 82.5q0 40 -17 66.5t-44.5 44.5t-62.5 30.5t-71 23.5q-39 12 -77 26t-68 35t-48.5 51.5t-18.5 76.5q0 50 17 83.5
t45 54t65 29.5t76 9q46 0 93.5 -8.5t85.5 -29.5l-10 -17q-35 20 -80 28t-89 8q-36 0 -69 -8t-58.5 -26.5t-40.5 -48.5t-15 -74q0 -41 17 -68.5t45 -46t63.5 -31.5t72.5 -24q39 -12 76.5 -25.5t67 -33.5t47.5 -50t18 -75z" />
    <glyph glyph-name="T" unicode="T" horiz-adv-x="555" 
d="M268 0v681h-225v19h469v-19h-224v-681h-20z" />
    <glyph glyph-name="U" unicode="U" horiz-adv-x="626" 
d="M556 350q0 -185 -57 -273.5t-186 -88.5t-186 88.5t-57 273.5v350h20v-350q0 -89 12.5 -153.5t39.5 -106.5t69.5 -62.5t101.5 -20.5q118 0 170.5 83t52.5 260v350h20v-350z" />
    <glyph glyph-name="V" unicode="V" horiz-adv-x="535" 
d="M258 -6l-231 703l19 6l221 -675l221 675l19 -6l-231 -703h-18z" />
    <glyph glyph-name="W" unicode="W" horiz-adv-x="801" 
d="M572 -6l-172 667l-171 -667h-20l-182 704l20 5l172 -670l170 665l21 5l172 -670l172 670l20 -5l-182 -704h-20z" />
    <glyph glyph-name="X" unicode="X" horiz-adv-x="551" 
d="M277 349l-227 -349h-23l238 366l-214 330l18 8l208 -321l206 317h23l-218 -334l236 -361l-18 -9z" />
    <glyph glyph-name="Y" unicode="Y" horiz-adv-x="526" 
d="M252 0v258l-225 439l19 6l216 -420l214 417h23l-227 -442v-258h-20z" />
    <glyph glyph-name="Z" unicode="Z" horiz-adv-x="527" 
d="M53 0l-6 19l389 662h-381v19h398l6 -19l-389 -662h410l-4 -19h-423z" />
    <glyph glyph-name="bracketleft" unicode="[" horiz-adv-x="300" 
d="M74 -140v858h166v-19h-146v-820h146v-19h-166z" />
    <glyph glyph-name="backslash" unicode="\" horiz-adv-x="283" 
d="M222 -3l-180 701l19 5l180 -701z" />
    <glyph glyph-name="bracketright" unicode="]" horiz-adv-x="300" 
d="M60 -140v19h146v820h-146v19h166v-858h-166z" />
    <glyph glyph-name="asciicircum" unicode="^" horiz-adv-x="400" 
d="M345 360l-145 332l-145 -332l-18 8l153 350h20l153 -350z" />
    <glyph glyph-name="underscore" unicode="_" horiz-adv-x="500" 
d="M-2 -154v19h504v-19h-504z" />
    <glyph glyph-name="grave" unicode="`" horiz-adv-x="182" 
d="M123 598l-81 168l24 3l74 -169z" />
    <glyph glyph-name="a" unicode="a" horiz-adv-x="491" 
d="M398 270l-18 -1q-68 -4 -124.5 -9t-97 -18.5t-63 -39.5t-22.5 -72q0 -38 12 -61.5t31.5 -37.5t45.5 -19t53 -5q37 0 64.5 9t48.5 26t37.5 42t32.5 57v129zM412 -4q-5 25 -8.5 51.5t-4.5 55.5q-14 -25 -30.5 -46t-38.5 -36.5t-50.5 -24t-64.5 -8.5q-74 0 -118 32.5
t-44 109.5q0 53 26 83.5t72 46t109.5 21t137.5 8.5v24q0 52 -13 87.5t-35 57.5t-50 31.5t-58 9.5q-75 0 -141 -36l-9 18q69 37 146 37q46 0 79.5 -15t56 -41.5t33.5 -64t11 -82.5v-190q0 -33 4 -64.5t10 -60.5z" />
    <glyph glyph-name="b" unicode="b" horiz-adv-x="504" 
d="M75 715l20 3v-314q13 25 30 46t38.5 36t50 23.5t64.5 8.5q50 0 83 -19t52.5 -53.5t27.5 -83.5t8 -109q0 -80 -16 -131.5t-43 -81t-62.5 -41t-73.5 -11.5q-43 0 -90 5.5t-89 21.5v700zM95 30q38 -14 80 -18.5t79 -4.5q34 0 66 10.5t56 38t38.5 75t14.5 122.5
q0 57 -7 102.5t-24.5 77.5t-46.5 49t-73 17q-36 0 -63.5 -9t-49 -26.5t-38.5 -42.5t-32 -57v-334z" />
    <glyph glyph-name="c" unicode="c" horiz-adv-x="423" 
d="M378 14q-43 -26 -116 -26q-112 0 -159.5 65t-47.5 200t47.5 200t159.5 65q73 0 116 -26l-10 -19q-39 26 -106 26q-101 0 -144 -60t-43 -186t43 -186t144 -60q67 0 106 26z" />
    <glyph glyph-name="d" unicode="d" horiz-adv-x="504" 
d="M423 -4q-5 25 -8.5 51.5t-4.5 55.5q-14 -25 -31 -46t-38.5 -36.5t-50 -24t-64.5 -8.5q-50 0 -83 19t-52.5 53.5t-27.5 83.5t-8 109q0 80 16 131.5t43 81t62.5 41t73.5 11.5q42 0 83 -8t76 -28v233l20 3v-593q0 -33 4 -64.5t10 -60.5zM409 459q-35 23 -76 31.5t-83 8.5
q-35 0 -66.5 -10.5t-55.5 -38t-38.5 -75t-14.5 -122.5q0 -57 7 -102.5t24 -77.5t46.5 -49t73.5 -17q36 0 63.5 9t49 26.5t38.5 42.5t32 57v317z" />
    <glyph glyph-name="e" unicode="e" horiz-adv-x="495" 
d="M420 278q-2 63 -13.5 105t-33 68t-52 37t-68.5 11q-35 0 -67 -9.5t-56.5 -36.5t-39.5 -75t-15 -125v-6zM418 28q-32 -21 -72.5 -30.5t-86.5 -9.5q-39 0 -75.5 10.5t-65 40t-46 81t-17.5 133.5q0 88 19 140.5t48 80.5t64 36t67 8q43 0 78 -13t59 -43t37 -79.5t13 -121.5
l-365 -33q3 -69 19.5 -112t42 -67.5t57.5 -33t65 -8.5q43 0 81 9t67 29z" />
    <glyph glyph-name="f" unicode="f" horiz-adv-x="312" 
d="M126 0v487h-96v19h94q-4 20 -6.5 42t-2.5 45q0 27 5.5 51.5t19.5 43.5t38 30.5t60 11.5q14 0 30 -1.5t33 -6.5l-5 -19q-32 8 -58 8q-31 0 -51 -9.5t-31.5 -25.5t-16 -37.5t-4.5 -45.5q0 -20 2.5 -42t7.5 -45h121l-3 -19h-117v-487h-20z" />
    <glyph glyph-name="g" unicode="g" horiz-adv-x="504" 
d="M136 -120q26 -15 60.5 -21t66.5 -6q39 0 66.5 12.5t45 34.5t26 51.5t8.5 63.5v87q-14 -25 -30.5 -46t-38 -36t-50 -23.5t-64.5 -8.5q-50 0 -83 19t-52.5 53.5t-27.5 83.5t-8 109q0 80 16 131.5t43 81t62.5 41t73.5 11.5q43 0 90 -5.5t89 -21.5v-476q0 -38 -9.5 -70.5
t-29.5 -57.5t-51.5 -39t-75.5 -14q-35 0 -71.5 6t-65.5 22zM409 476q-38 14 -80 18.5t-79 4.5q-35 0 -66.5 -10.5t-55.5 -38t-38.5 -75t-14.5 -122.5q0 -57 7 -102.5t24 -77.5t46.5 -49t73.5 -17q36 0 63.5 9t49 26.5t38.5 42.5t32 57v334z" />
    <glyph glyph-name="h" unicode="h" horiz-adv-x="505" 
d="M420 285q0 34 -3.5 71.5t-17.5 69t-42.5 52.5t-78.5 21q-36 0 -63.5 -9t-49 -26.5t-38.5 -42.5t-32 -57v-364h-20v715l20 3v-314q13 25 30 46t38.5 36t50 23.5t64.5 8.5q57 0 89.5 -23t48.5 -57.5t20 -75.5t4 -77v-285h-20v285z" />
    <glyph glyph-name="i" unicode="i" horiz-adv-x="180" 
d="M90 627q-19 0 -19 20q0 19 19 19t19 -19q0 -20 -19 -20zM97 0q-10 37 -13.5 81t-3.5 95v327l20 3v-330q0 -50 3.5 -94.5t13.5 -81.5h-20z" />
    <glyph glyph-name="j" unicode="j" horiz-adv-x="185" 
d="M95 627q-19 0 -19 20q0 19 19 19t19 -19q0 -20 -19 -20zM11 -143q27 13 42 32t22 43.5t8.5 55.5t1.5 69v446l20 3v-449q0 -41 -1.5 -74t-10 -60t-25.5 -47.5t-48 -36.5z" />
    <glyph glyph-name="k" unicode="k" horiz-adv-x="398" 
d="M95 278v-278h-20v715l20 3v-432l245 225l15 -13l-236 -217l251 -275l-17 -11z" />
    <glyph glyph-name="l" unicode="l" horiz-adv-x="180" 
d="M97 0q-10 37 -13.5 81t-3.5 95v539l20 3v-542q0 -50 3.5 -94.5t13.5 -81.5h-20z" />
    <glyph glyph-name="m" unicode="m" horiz-adv-x="830" 
d="M745 0v285q0 34 -3.5 71.5t-17 69t-41 52.5t-76.5 21q-35 0 -62 -9.5t-48 -27.5t-37 -44.5t-30 -59.5v-358h-20v333q0 33 -8 63.5t-24.5 53t-43 36t-62.5 13.5q-35 0 -61.5 -9t-47.5 -26.5t-37 -42.5t-31 -57v-364h-20v381q0 33 -4 64.5t-10 60.5l20 4q5 -25 8.5 -51.5
t4.5 -55.5q26 50 67 82.5t112 32.5q36 0 62 -10.5t44 -28t29 -41t16 -49.5q26 60 69 94.5t115 34.5q55 0 86.5 -23t47.5 -57.5t19.5 -75.5t3.5 -77v-285h-20z" />
    <glyph glyph-name="n" unicode="n" horiz-adv-x="505" 
d="M420 0v285q0 34 -3.5 71.5t-17.5 69t-42.5 52.5t-78.5 21q-36 0 -63.5 -9t-49 -26.5t-38.5 -42.5t-32 -57v-364h-20v381q0 33 -4 64.5t-10 60.5l20 4q5 -25 8.5 -51.5t4.5 -55.5q14 25 31 46t38.5 36.5t50 24t64.5 8.5q57 0 89.5 -23t48.5 -57.5t20 -75.5t4 -77v-285h-20
z" />
    <glyph glyph-name="o" unicode="o" horiz-adv-x="524" 
d="M262 -12q-112 0 -159.5 65t-47.5 200t47.5 200t159.5 65t159.5 -65t47.5 -200t-47.5 -200t-159.5 -65zM262 7q102 0 144.5 60t42.5 186t-42.5 186t-144.5 60t-144.5 -60t-42.5 -186t42.5 -186t144.5 -60z" />
    <glyph glyph-name="p" unicode="p" horiz-adv-x="504" 
d="M75 -154v535q0 33 -4 64.5t-10 60.5l20 4q5 -25 8.5 -51.5t4.5 -55.5q14 25 31 46t38.5 36.5t50 24t64.5 8.5q50 0 83 -19t52.5 -53.5t27.5 -83.5t8 -109q0 -80 -16 -131.5t-43 -81t-62.5 -41t-73.5 -11.5q-42 0 -83 8t-76 28v-178h-20zM95 47q35 -23 76 -31.5t83 -8.5
q34 0 66 10.5t56 38t38.5 75t14.5 122.5q0 57 -7 102.5t-24.5 77.5t-46.5 49t-73 17q-36 0 -63.5 -9t-49 -26.5t-38.5 -42.5t-32 -57v-317z" />
    <glyph glyph-name="q" unicode="q" horiz-adv-x="504" 
d="M409 102q-14 -25 -30.5 -46t-38 -36t-50 -23.5t-64.5 -8.5q-50 0 -83 19t-52.5 53.5t-27.5 83.5t-8 109q0 80 16 131.5t43 81t62.5 41t73.5 11.5q43 0 90 -5.5t89 -21.5v-642l-20 -3v256zM409 476q-38 14 -80 18.5t-79 4.5q-35 0 -66.5 -10.5t-55.5 -38t-38.5 -75
t-14.5 -122.5q0 -57 7 -102.5t24 -77.5t46.5 -49t73.5 -17q36 0 63.5 9t49 26.5t38.5 42.5t32 57v334z" />
    <glyph glyph-name="r" unicode="r" horiz-adv-x="284" 
d="M75 0v381q0 33 -4 64.5t-10 60.5l20 4q5 -25 8.5 -52t4.5 -56q26 47 62 78t97 37l1 -20q-31 -3 -54 -13t-42 -27t-34 -40.5t-29 -52.5v-364h-20z" />
    <glyph glyph-name="s" unicode="s" horiz-adv-x="422" 
d="M55 53q34 -23 76 -34.5t87 -11.5q61 0 99.5 30t38.5 96q0 28 -12 46.5t-31.5 31t-44 21t-50.5 16.5q-29 9 -57 19t-50 25t-35.5 37.5t-13.5 56.5q0 61 41.5 96.5t109.5 35.5q51 0 82 -9t48 -18l-9 -19q-11 7 -41.5 17t-79.5 10q-26 0 -50 -6.5t-42 -20.5t-28.5 -35.5
t-10.5 -50.5t12 -48t32 -32t45.5 -22t52.5 -17q28 -9 55.5 -19t49 -24.5t34.5 -36t13 -54.5q0 -70 -42.5 -107.5t-115.5 -37.5q-48 0 -93 11.5t-81 35.5z" />
    <glyph glyph-name="t" unicode="t" horiz-adv-x="292" 
d="M198 -8q-45 33 -61 84t-16 111v300h-96v19h96v164l20 3v-167h120l-3 -19h-117v-300q0 -55 14 -102t55 -77z" />
    <glyph glyph-name="u" unicode="u" horiz-adv-x="505" 
d="M424 -4q-5 25 -8.5 51.5t-4.5 55.5q-14 -25 -31 -46t-38.5 -36.5t-50 -24t-64.5 -8.5q-57 0 -89.5 23t-48.5 57.5t-20 75.5t-4 77v282l20 3v-285q0 -34 3.5 -71.5t17.5 -69t42.5 -52.5t78.5 -21q36 0 63.5 9t49 26.5t38.5 42.5t32 57v361l20 3v-381q0 -33 4 -64.5
t10 -60.5z" />
    <glyph glyph-name="v" unicode="v" horiz-adv-x="414" 
d="M196 -6l-169 509l19 6l161 -488l161 488l19 -6l-169 -509h-22z" />
    <glyph glyph-name="w" unicode="w" horiz-adv-x="716" 
d="M508 -6l-150 475l-149 -475h-22l-160 509l19 6l152 -488l150 483l18 5l153 -488l151 488l19 -6l-159 -509h-22z" />
    <glyph glyph-name="x" unicode="x" horiz-adv-x="422" 
d="M211 249l-160 -249h-24l172 267l-152 234l17 11l147 -227l141 221h24l-154 -239l173 -263l-17 -11z" />
    <glyph glyph-name="y" unicode="y" horiz-adv-x="413" 
d="M74 -145q45 23 76 58t48 87l-171 503l19 6l163 -482l158 482l19 -6l-166 -503q-38 -114 -137 -163z" />
    <glyph glyph-name="z" unicode="z" horiz-adv-x="428" 
d="M41 0l-6 19l321 468h-305v19h325l5 -19l-321 -468h333l-3 -19h-349z" />
    <glyph glyph-name="braceleft" unicode="{" horiz-adv-x="347" 
d="M282 -140q-29 0 -56 4t-47.5 21t-33 51.5t-12.5 95.5q0 75 -6 122.5t-18 75.5t-30.5 38.5t-43.5 10.5l-2 20q27 0 46 11t31 39t17.5 76t5.5 121q0 61 12.5 95.5t33 51.5t47.5 21t56 4v-19q-27 0 -51 -3.5t-41 -19t-27 -46t-10 -84.5q0 -60 -3.5 -104.5t-12 -75t-21 -49.5
t-30.5 -28q18 -9 30.5 -28t21 -49.5t12 -75t3.5 -104.5q0 -54 10 -84.5t27 -46t41 -19t51 -3.5v-19z" />
    <glyph glyph-name="bar" unicode="|" horiz-adv-x="240" 
d="M110 -140v934h20v-934h-20z" />
    <glyph glyph-name="braceright" unicode="}" horiz-adv-x="347" 
d="M65 -121q27 0 51 3.5t41 19t27 46t10 84.5q0 60 3.5 104.5t12 75t21 49.5t30.5 28q-18 9 -30.5 28t-21 49.5t-12 75t-3.5 104.5q0 54 -10 84.5t-27 46t-41 19t-51 3.5v19q29 0 56 -4t47.5 -21t33 -51.5t12.5 -95.5q0 -73 5.5 -121t17.5 -76t31 -39t46 -11l-2 -20
q-26 0 -44.5 -10.5t-30.5 -38.5t-17.5 -75.5t-5.5 -122.5q0 -61 -12.5 -95.5t-33 -51.5t-47.5 -21t-56 -4v19z" />
    <glyph glyph-name="asciitilde" unicode="~" horiz-adv-x="489" 
d="M318 239q-26 0 -44 9t-34 20t-32 20t-37 9q-29 0 -52.5 -13t-43.5 -35l-15 13q20 23 47 38.5t64 15.5q25 0 43.5 -9t34.5 -20t32 -20t37 -9q29 0 52.5 13t43.5 35l15 -13q-20 -23 -47 -38.5t-64 -15.5z" />
    <glyph glyph-name="uni00A0" unicode="&#xa0;" horiz-adv-x="200" 
 />
    <glyph glyph-name="exclamdown" unicode="&#xa1;" horiz-adv-x="211" 
d="M101 -187v49q0 34 0.5 80t1 100.5t1 111t1 111t0.5 100.5h16q0 -46 0.5 -99.5t1 -109t0.5 -109t0.5 -99t1 -80t0.5 -51.5zM113 471q-23 0 -23 23q0 24 23 24t23 -24q0 -23 -23 -23z" />
    <glyph glyph-name="cent" unicode="&#xa2;" 
d="M347 -112v101q-107 8 -152.5 72.5t-45.5 191.5t45.5 191.5t152.5 72.5v102h20v-101h9q38 0 70.5 -6t57.5 -20l-10 -18q-43 25 -118 25q-56 0 -95.5 -15t-64.5 -45t-36.5 -76.5t-11.5 -109.5t11.5 -109.5t36.5 -76.5t64.5 -45t95.5 -15q74 0 117 25l11 -18
q-25 -14 -57.5 -20t-70.5 -6h-9v-100h-20z" />
    <glyph glyph-name="sterling" unicode="&#xa3;" 
d="M151 0l-8 19q24 22 39.5 45.5t24 48t11.5 50t3 50.5q0 29 -4 60.5t-10 63.5h-109v19h105q-12 49 -20.5 101t-8.5 99q0 43 17.5 72.5t46 48t66 27t76.5 8.5q48 0 94 -9t87 -32l-10 -17q-38 22 -82 30.5t-89 8.5q-36 0 -69.5 -7.5t-59.5 -23.5t-41.5 -42.5t-15.5 -63.5
q0 -45 9 -98.5t20 -101.5h234v-19h-230q6 -31 9.5 -62t3.5 -62q0 -54 -14 -103t-55 -91h411v-19h-431z" />
    <glyph glyph-name="currency" unicode="&#xa4;" horiz-adv-x="590" 
d="M295 172q-65 0 -100 28l-70 -70l-15 15l69 69q-30 36 -30 101q0 64 30 100l-69 70l15 15l70 -70q37 28 100 28t100 -28l70 70l15 -15l-70 -70q31 -35 31 -100q0 -66 -31 -101l70 -69l-15 -15l-70 70q-35 -28 -100 -28zM295 191q126 0 126 124t-126 124t-126 -124
t126 -124z" />
    <glyph glyph-name="yen" unicode="&#xa5;" 
d="M329 0v174h-187v19h187v89h-187v19h179l-241 396l19 6l240 -396l237 393h23l-243 -399h181v-19h-188v-89h188v-19h-188v-174h-20z" />
    <glyph glyph-name="brokenbar" unicode="&#xa6;" horiz-adv-x="240" 
d="M110 -140v413h20v-413h-20zM110 381v413h20v-413h-20z" />
    <glyph glyph-name="section" unicode="&#xa7;" 
d="M241 435q-44 -14 -72.5 -46t-28.5 -86q0 -33 16 -55.5t41.5 -38t58 -26.5t65.5 -20q35 -10 64.5 -19t52.5 -19q44 14 72.5 46t28.5 86q0 33 -16 55.5t-41.5 38t-58 26.5t-65.5 20q-35 10 -64.5 19t-52.5 19zM460 112q32 -17 53 -44.5t21 -71.5q0 -42 -17 -70.5t-44.5 -46
t-63.5 -24.5t-73 -7q-51 0 -98.5 9t-87.5 30l10 17q36 -19 81.5 -28t94.5 -9q34 0 66 6t57 21t40 40t15 62q0 35 -17.5 58.5t-45.5 40t-64 27.5t-73 22q-37 10 -72 22t-62 30t-43.5 44t-16.5 64q0 57 28 92t71 52q-32 17 -53 44.5t-21 71.5q0 42 17 70.5t44.5 46t63 24.5
t73.5 7q51 0 98.5 -9t87.5 -30l-10 -17q-36 19 -81.5 28t-94.5 9q-34 0 -66 -6t-57 -21t-40 -40t-15 -62q0 -35 17.5 -58.5t45.5 -40t64 -28t73 -21.5q37 -11 72 -22.5t62 -29.5t43.5 -44t16.5 -64q0 -57 -28 -92t-71 -52z" />
    <glyph glyph-name="dieresis" unicode="&#xa8;" horiz-adv-x="325" 
d="M79 627q-19 0 -19 20q0 19 19 19t19 -19q0 -20 -19 -20zM246 627q-19 0 -19 20q0 19 19 19t19 -19q0 -20 -19 -20z" />
    <glyph glyph-name="copyright" unicode="&#xa9;" horiz-adv-x="808" 
d="M404 -12q-169 0 -256.5 92.5t-87.5 269.5t87 269.5t257 92.5t257 -92.5t87 -269.5t-87 -269.5t-257 -92.5zM404 7q160 0 242 86.5t82 256.5t-82 256.5t-242 86.5t-242 -86.5t-82 -256.5t82.5 -256.5t241.5 -86.5zM531 116q-29 -19 -58 -26t-64 -7q-105 0 -152 64.5
t-47 201.5q0 136 47 201t152 65q35 0 64 -7t58 -27l-12 -16q-23 17 -50.5 24t-59.5 7q-95 0 -137 -59t-42 -188t42 -188t137 -59q32 0 59.5 6.5t50.5 23.5z" />
    <glyph glyph-name="ordfeminine" unicode="&#xaa;" horiz-adv-x="324" 
d="M255 404q-8 26 -9 53q-16 -26 -40.5 -42t-62.5 -16q-52 0 -74 22.5t-22 60.5q0 53 47 74.5t150 23.5v9q0 28 -7.5 48t-19.5 32.5t-27 18t-30 5.5q-45 0 -84 -21l-9 18q43 22 93 22q19 0 38 -6.5t33.5 -20.5t23.5 -38t9 -58v-112q0 -36 10 -70zM244 561q-93 -2 -135 -19
t-42 -60q0 -31 17 -47.5t59 -16.5q40 0 62 18t39 51v74zM59 342v19h218v-19h-218z" />
    <glyph glyph-name="guillemotleft" unicode="&#xab;" horiz-adv-x="658" 
d="M60 259v20l277 201l5 -20l-263 -191l263 -192l-5 -19zM316 259v20l277 201l5 -20l-263 -191l263 -192l-5 -19z" />
    <glyph glyph-name="logicalnot" unicode="&#xac;" 
d="M555 92v181h-450v19h470v-200h-20z" />
    <glyph glyph-name="uni00AD" unicode="&#xad;" horiz-adv-x="446" 
d="M72 272zM72 272v20h302v-20h-302z" />
    <glyph glyph-name="registered" unicode="&#xae;" horiz-adv-x="808" 
d="M404 -12q-169 0 -256.5 92.5t-87.5 269.5t87 269.5t257 92.5t257 -92.5t87 -269.5t-87 -269.5t-257 -92.5zM459 294h-180v-191h-20v495q31 8 63.5 12.5t64.5 4.5q39 0 75.5 -8t64 -27.5t44 -52t16.5 -82.5q0 -35 -9 -60t-24 -43t-34.5 -28.5t-39.5 -15.5l115 -189
l-17 -11zM443 313q51 0 87.5 33t36.5 99q0 45 -15 74t-40 46.5t-57.5 24t-67.5 6.5q-26 0 -54 -4t-54 -10v-269h164zM404 7q160 0 242 86.5t82 256.5t-82 256.5t-242 86.5t-242 -86.5t-82 -256.5t82.5 -256.5t241.5 -86.5z" />
    <glyph glyph-name="macron" unicode="&#xaf;" horiz-adv-x="454" 
d="M40 600v19h374v-19h-374z" />
    <glyph glyph-name="degree" unicode="&#xb0;" horiz-adv-x="412" 
d="M206 463q126 0 126 124t-126 124t-126 -124t126 -124zM206 444q-73 0 -109.5 36.5t-36.5 106.5t36.5 106.5t109.5 36.5t109.5 -36.5t36.5 -106.5t-36.5 -106.5t-109.5 -36.5z" />
    <glyph glyph-name="plusminus" unicode="&#xb1;" 
d="M330 68v205h-224v19h224v224h20v-224h224v-19h-224v-205h-20zM106 0v19h468v-19h-468z" />
    <glyph glyph-name="twosuperior" unicode="&#xb2;" horiz-adv-x="337" 
d="M61 305l-5 19q101 72 151.5 135.5t50.5 131.5q0 44 -23 70.5t-74 26.5q-53 0 -98 -27l-10 17q47 29 109 29q61 0 88.5 -33t27.5 -82q0 -70 -49.5 -136t-141.5 -132h191v-19h-217z" />
    <glyph glyph-name="threesuperior" unicode="&#xb3;" horiz-adv-x="346" 
d="M60 345q50 -28 114 -28q56 0 81.5 31.5t25.5 74.5q0 40 -30 68.5t-100 28.5q-6 0 -13 -0.5t-14 -1.5l-10 20l138 143h-194v19h217l5 -19l-138 -142h9q40 0 68.5 -9.5t46.5 -25.5t26.5 -37t8.5 -44q0 -25 -7.5 -47.5t-23 -40t-39.5 -27.5t-57 -10q-36 0 -67 7t-57 22z" />
    <glyph glyph-name="acute" unicode="&#xb4;" horiz-adv-x="182" 
d="M42 600l74 169l24 -3l-81 -168z" />
    <glyph glyph-name="mu" unicode="&#xb5;" horiz-adv-x="523" 
d="M431 -4q-5 25 -8.5 51.5t-4.5 55.5q-14 -25 -31 -46t-38.5 -36.5t-50 -24t-64.5 -8.5q-60 0 -94.5 26t-47.5 71v-239h-20v657l20 3v-285q0 -34 3.5 -71.5t17.5 -69t42.5 -52.5t78.5 -21q36 0 63.5 9t49 26.5t38.5 42.5t32 57v361l20 3v-381q0 -33 4 -64.5t10 -60.5z" />
    <glyph glyph-name="paragraph" unicode="&#xb6;" horiz-adv-x="445" 
d="M340 0v682q-39 11 -73 11v-693h-20v314h-13q-51 0 -89.5 18t-63.5 47t-37.5 65t-12.5 72q0 44 17 80t47.5 62t72 40t89.5 14q51 0 103 -16v-696h-20zM247 693q-42 -2 -78 -15t-62.5 -36.5t-41 -55t-14.5 -70.5q0 -33 11 -65.5t34 -58.5t57 -42.5t81 -16.5h13v360z" />
    <glyph glyph-name="periodcentered" unicode="&#xb7;" horiz-adv-x="190" 
d="M95 313q-23 0 -23 24q0 23 23 23t23 -23q0 -24 -23 -24z" />
    <glyph glyph-name="cedilla" unicode="&#xb8;" horiz-adv-x="201" 
d="M46 -139q21 -8 44 -8q20 0 35.5 9t15.5 34q0 13 -6.5 21.5t-16 13t-21.5 7t-23 3.5l17 59h21l-13 -44q33 -6 47.5 -22t14.5 -37q0 -35 -22.5 -49t-51.5 -14q-23 0 -47 8z" />
    <glyph glyph-name="onesuperior" unicode="&#xb9;" horiz-adv-x="206" 
d="M93 305v392l20 3v-395h-20z" />
    <glyph glyph-name="ordmasculine" unicode="&#xba;" horiz-adv-x="340" 
d="M170 398q-66 0 -94.5 38t-28.5 119t28.5 119t94.5 38t94.5 -38t28.5 -119t-28.5 -119t-94.5 -38zM170 417q57 0 80 33t23 105t-23 105t-80 33t-80 -33t-23 -105t23 -105t80 -33zM61 342v19h218v-19h-218z" />
    <glyph glyph-name="guillemotright" unicode="&#xbb;" horiz-adv-x="658" 
d="M316 77l263 192l-263 191l5 20l277 -201v-20l-277 -201zM60 77l263 192l-263 191l5 20l277 -201v-20l-277 -201z" />
    <glyph glyph-name="onequarter" unicode="&#xbc;" horiz-adv-x="624" 
d="M500 0v110h-173l-6 19q32 62 46.5 126.5t17.5 141.5l20 -4q-3 -75 -17.5 -139.5t-44.5 -124.5h157v168l20 3v-171h53v-19h-53v-110h-20zM93 305v392l20 3v-395h-20zM93 4l297 700l18 -8l-297 -700z" />
    <glyph glyph-name="onehalf" unicode="&#xbd;" horiz-adv-x="633" 
d="M93 305v392l20 3v-395h-20zM93 4l297 700l18 -8l-297 -700zM357 0l-5 19q101 72 151.5 135.5t50.5 131.5q0 42 -23 69.5t-74 27.5q-28 0 -52 -7.5t-46 -20.5l-10 18q47 29 109 29q61 0 88.5 -33t27.5 -82q0 -70 -49.5 -136t-141.5 -132h191v-19h-217z" />
    <glyph glyph-name="threequarters" unicode="&#xbe;" horiz-adv-x="745" 
d="M621 0v110h-173l-6 19q32 62 46.5 126.5t17.5 141.5l20 -4q-3 -75 -17.5 -139.5t-44.5 -124.5h157v168l20 3v-171h53v-19h-53v-110h-20zM214 4l297 700l18 -8l-297 -700zM60 345q50 -28 114 -28q56 0 81.5 31.5t25.5 74.5q0 40 -30 68.5t-100 28.5q-6 0 -13 -0.5
t-14 -1.5l-10 20l138 143h-194v19h217l5 -19l-138 -142h9q40 0 68.5 -9.5t46.5 -25.5t26.5 -37t8.5 -44q0 -25 -7.5 -47.5t-23 -40t-39.5 -27.5t-57 -10q-36 0 -67 7t-57 22z" />
    <glyph glyph-name="questiondown" unicode="&#xbf;" horiz-adv-x="442" 
d="M401 -195q-12 -2 -24 -2h-24q-72 0 -128 18.5t-94.5 49.5t-58.5 72t-20 86q0 33 13.5 64.5t41 58t70 46t99.5 28.5q0 17 0.5 36.5t1 38.5t0.5 35v29h16v-31q0 -18 0.5 -39.5t1 -44t0.5 -41.5q-58 -8 -100 -25.5t-69.5 -41.5t-41 -53t-13.5 -60q0 -42 19 -79.5t55 -66
t88 -45t119 -16.5q21 0 50 3zM286 471q-23 0 -23 23q0 24 23 24t23 -24q0 -23 -23 -23z" />
    <glyph glyph-name="Agrave" unicode="&#xc0;" horiz-adv-x="535" 
d="M26 0zM488 -3l-65 197h-312l-64 -194h-21l230 699l21 3l230 -699zM267 670l-150 -457h300zM273 743l-81 168l24 3l74 -169z" />
    <glyph glyph-name="Aacute" unicode="&#xc1;" horiz-adv-x="535" 
d="M26 0zM488 -3l-65 197h-312l-64 -194h-21l230 699l21 3l230 -699zM267 670l-150 -457h300zM244 766l74 169l24 -3l-81 -168z" />
    <glyph glyph-name="Acircumflex" unicode="&#xc2;" horiz-adv-x="535" 
d="M26 0zM488 -3l-65 197h-312l-64 -194h-21l230 699l21 3l230 -699zM267 670l-150 -457h300zM270 880l-155 -122l-15 14l160 125h20l160 -125l-15 -14z" />
    <glyph glyph-name="Atilde" unicode="&#xc3;" horiz-adv-x="535" 
d="M26 0zM488 -3l-65 197h-312l-64 -194h-21l230 699l21 3l230 -699zM267 670l-150 -457h300zM344 768q-26 0 -44 9t-34 20t-32 20t-37 9q-29 0 -52.5 -13t-43.5 -35l-15 13q20 23 47 38.5t64 15.5q25 0 43.5 -9t34.5 -20t32 -20t37 -9q29 0 52.5 13t43.5 35l15 -13
q-20 -23 -47 -38.5t-64 -15.5z" />
    <glyph glyph-name="Adieresis" unicode="&#xc4;" horiz-adv-x="535" 
d="M26 0zM488 -3l-65 197h-312l-64 -194h-21l230 699l21 3l230 -699zM267 670l-150 -457h300zM187 763q-19 0 -19 20q0 19 19 19t19 -19q0 -20 -19 -20zM354 763q-19 0 -19 20q0 19 19 19t19 -19q0 -20 -19 -20z" />
    <glyph glyph-name="Aring" unicode="&#xc5;" horiz-adv-x="535" 
d="M26 0l226 683q-93 7 -93 101q0 49 27 75t81 26t81 -26t27 -75q0 -94 -93 -101l225 -680l-19 -6l-65 197h-312l-64 -194h-21zM117 213h300l-150 455zM267 702q88 0 88 82t-88 82t-88 -82t88 -82z" />
    <glyph glyph-name="AE" unicode="&#xc6;" horiz-adv-x="856" 
d="M433 0v194h-272l-113 -194h-23l408 700h366v-20h-346v-296h287l-3 -19h-284v-345h346v-20h-366zM433 660l-262 -447h262v447z" />
    <glyph glyph-name="Ccedilla" unicode="&#xc7;" horiz-adv-x="546" 
d="M254 -139q21 -8 44 -8q20 0 35.5 9t15.5 34q0 13 -6.5 21.5t-16 13t-21.5 7t-23 3.5l14 49q-125 9 -180 97t-55 263q0 93 15 161t47.5 112.5t83.5 66.5t122 22q105 0 165 -45l-11 -18q-58 44 -154 44q-132 0 -190 -83.5t-58 -259.5t58 -259.5t190 -83.5q96 0 154 44
l11 -18q-60 -45 -165 -45h-13l-9 -32q33 -6 47.5 -22t14.5 -37q0 -35 -22.5 -49t-51.5 -14q-23 0 -47 8z" />
    <glyph glyph-name="Egrave" unicode="&#xc8;" horiz-adv-x="498" 
d="M75 0zM75 0v700h366v-19h-346v-297h287l-3 -19h-284v-346h346v-19h-366zM255 764l-81 168l24 3l74 -169z" />
    <glyph glyph-name="Eacute" unicode="&#xc9;" horiz-adv-x="498" 
d="M75 0zM75 0v700h366v-19h-346v-297h287l-3 -19h-284v-346h346v-19h-366zM215 766l74 169l24 -3l-81 -168z" />
    <glyph glyph-name="Ecircumflex" unicode="&#xca;" horiz-adv-x="498" 
d="M75 0zM75 0v700h366v-19h-346v-297h287l-3 -19h-284v-346h346v-19h-366zM253 880l-155 -122l-15 14l160 125h20l160 -125l-15 -14z" />
    <glyph glyph-name="Edieresis" unicode="&#xcb;" horiz-adv-x="498" 
d="M75 0zM75 0v700h366v-19h-346v-297h287l-3 -19h-284v-346h346v-19h-366zM165 763q-19 0 -19 20q0 19 19 19t19 -19q0 -20 -19 -20zM332 763q-19 0 -19 20q0 19 19 19t19 -19q0 -20 -19 -20z" />
    <glyph glyph-name="Igrave" unicode="&#xcc;" horiz-adv-x="170" 
d="M0 0zM75 0v700h20v-700h-20zM76 764l-81 168l24 3l74 -169z" />
    <glyph glyph-name="Iacute" unicode="&#xcd;" horiz-adv-x="170" 
d="M70 0zM75 0v700h20v-700h-20zM70 766l74 169l24 -3l-81 -168z" />
    <glyph glyph-name="Icircumflex" unicode="&#xce;" horiz-adv-x="170" 
d="M0 0zM75 0v700h20v-700h-20zM85 883l-155 -122l-15 14l160 125h20l160 -125l-15 -14z" />
    <glyph glyph-name="Idieresis" unicode="&#xcf;" horiz-adv-x="170" 
d="M0 0zM75 0v700h20v-700h-20zM2 763q-19 0 -19 20q0 19 19 19t19 -19q0 -20 -19 -20zM169 763q-19 0 -19 20q0 19 19 19t19 -19q0 -20 -19 -20z" />
    <glyph glyph-name="Eth" unicode="&#xd0;" horiz-adv-x="673" 
d="M120 340h-79v19h79v333q57 8 111.5 14t105.5 6q59 0 109.5 -14.5t87 -54t57.5 -110.5t21 -183q0 -98 -17 -165t-51 -108t-86 -59t-122 -18h-216v340zM140 359h153v-19h-153v-321h196q65 0 113 16.5t80 55.5t47.5 102.5t15.5 156.5q0 107 -19.5 174t-53.5 104.5t-80.5 51
t-101.5 13.5q-46 0 -96 -5t-101 -13v-316z" />
    <glyph glyph-name="Ntilde" unicode="&#xd1;" horiz-adv-x="600" 
d="M75 0zM504 0l-409 663v-663h-20v695l19 9l411 -668v664h20v-700h-21zM382 766q-26 0 -44 9t-34 20t-32 20t-37 9q-29 0 -52.5 -13t-43.5 -35l-15 13q20 23 47 38.5t64 15.5q25 0 43.5 -9t34.5 -20t32 -20t37 -9q29 0 52.5 13t43.5 35l15 -13q-20 -23 -47 -38.5t-64 -15.5
z" />
    <glyph glyph-name="Ograve" unicode="&#xd2;" horiz-adv-x="658" 
d="M61 0zM329 -12q-71 0 -122 22t-83.5 66.5t-47.5 112.5t-15 161t15 161t47.5 112.5t83.5 66.5t122 22q142 0 205 -88.5t63 -273.5t-63 -273.5t-205 -88.5zM329 7q132 0 190 82.5t58 260.5t-58 260.5t-190 82.5t-190 -82.5t-58 -260.5t58 -260.5t190 -82.5zM334 764
l-81 168l24 3l74 -169z" />
    <glyph glyph-name="Oacute" unicode="&#xd3;" horiz-adv-x="658" 
d="M61 0zM329 -12q-71 0 -122 22t-83.5 66.5t-47.5 112.5t-15 161t15 161t47.5 112.5t83.5 66.5t122 22q142 0 205 -88.5t63 -273.5t-63 -273.5t-205 -88.5zM329 7q132 0 190 82.5t58 260.5t-58 260.5t-190 82.5t-190 -82.5t-58 -260.5t58 -260.5t190 -82.5zM297 766l74 169
l24 -3l-81 -168z" />
    <glyph glyph-name="Ocircumflex" unicode="&#xd4;" horiz-adv-x="658" 
d="M61 0zM329 -12q-71 0 -122 22t-83.5 66.5t-47.5 112.5t-15 161t15 161t47.5 112.5t83.5 66.5t122 22q142 0 205 -88.5t63 -273.5t-63 -273.5t-205 -88.5zM329 7q132 0 190 82.5t58 260.5t-58 260.5t-190 82.5t-190 -82.5t-58 -260.5t58 -260.5t190 -82.5zM329 883
l-155 -122l-15 14l160 125h20l160 -125l-15 -14z" />
    <glyph glyph-name="Otilde" unicode="&#xd5;" horiz-adv-x="658" 
d="M61 0zM329 -12q-71 0 -122 22t-83.5 66.5t-47.5 112.5t-15 161t15 161t47.5 112.5t83.5 66.5t122 22q142 0 205 -88.5t63 -273.5t-63 -273.5t-205 -88.5zM329 7q132 0 190 82.5t58 260.5t-58 260.5t-190 82.5t-190 -82.5t-58 -260.5t58 -260.5t190 -82.5zM402 768
q-26 0 -44 9t-34 20t-32 20t-37 9q-29 0 -52.5 -13t-43.5 -35l-15 13q20 23 47 38.5t64 15.5q25 0 43.5 -9t34.5 -20t32 -20t37 -9q29 0 52.5 13t43.5 35l15 -13q-20 -23 -47 -38.5t-64 -15.5z" />
    <glyph glyph-name="Odieresis" unicode="&#xd6;" horiz-adv-x="658" 
d="M61 0zM329 -12q-71 0 -122 22t-83.5 66.5t-47.5 112.5t-15 161t15 161t47.5 112.5t83.5 66.5t122 22q142 0 205 -88.5t63 -273.5t-63 -273.5t-205 -88.5zM329 7q132 0 190 82.5t58 260.5t-58 260.5t-190 82.5t-190 -82.5t-58 -260.5t58 -260.5t190 -82.5zM246 763
q-19 0 -19 20q0 19 19 19t19 -19q0 -20 -19 -20zM413 763q-19 0 -19 20q0 19 19 19t19 -19q0 -20 -19 -20z" />
    <glyph glyph-name="multiply" unicode="&#xd7;" 
d="M153 114l172 172l-172 172l14 14l173 -172l171 172l15 -15l-172 -171l172 -174l-14 -14l-172 173l-172 -172z" />
    <glyph glyph-name="Oslash" unicode="&#xd8;" horiz-adv-x="658" 
d="M329 -12q-35 0 -63.5 5t-53.5 15l-41 -93h-22l44 101q-69 36 -100.5 118t-31.5 216q0 93 15 161t47.5 112.5t83.5 66.5t122 22q94 0 154 -39l41 92h22l-46 -105q51 -42 74 -118.5t23 -191.5q0 -185 -63 -273.5t-205 -88.5zM329 7q132 0 190 83t58 260t-58 260t-190 83
t-190 -83t-58 -260t58 -260t190 -83z" />
    <glyph glyph-name="Ugrave" unicode="&#xd9;" horiz-adv-x="626" 
d="M70 0zM556 350q0 -185 -57 -273.5t-186 -88.5t-186 88.5t-57 273.5v350h20v-350q0 -89 12.5 -153.5t39.5 -106.5t69.5 -62.5t101.5 -20.5q118 0 170.5 83t52.5 260v350h20v-350zM314 764l-81 168l24 3l74 -169z" />
    <glyph glyph-name="Uacute" unicode="&#xda;" horiz-adv-x="626" 
d="M70 0zM556 350q0 -185 -57 -273.5t-186 -88.5t-186 88.5t-57 273.5v350h20v-350q0 -89 12.5 -153.5t39.5 -106.5t69.5 -62.5t101.5 -20.5q118 0 170.5 83t52.5 260v350h20v-350zM285 766l74 169l24 -3l-81 -168z" />
    <glyph glyph-name="Ucircumflex" unicode="&#xdb;" horiz-adv-x="626" 
d="M70 0zM556 350q0 -185 -57 -273.5t-186 -88.5t-186 88.5t-57 273.5v350h20v-350q0 -89 12.5 -153.5t39.5 -106.5t69.5 -62.5t101.5 -20.5q118 0 170.5 83t52.5 260v350h20v-350zM313 883l-155 -122l-15 14l160 125h20l160 -125l-15 -14z" />
    <glyph glyph-name="Udieresis" unicode="&#xdc;" horiz-adv-x="626" 
d="M70 0zM556 350q0 -185 -57 -273.5t-186 -88.5t-186 88.5t-57 273.5v350h20v-350q0 -89 12.5 -153.5t39.5 -106.5t69.5 -62.5t101.5 -20.5q118 0 170.5 83t52.5 260v350h20v-350zM230 763q-19 0 -19 20q0 19 19 19t19 -19q0 -20 -19 -20zM397 763q-19 0 -19 20q0 19 19 19
t19 -19q0 -20 -19 -20z" />
    <glyph glyph-name="Yacute" unicode="&#xdd;" horiz-adv-x="526" 
d="M27 0zM252 0v258l-225 439l19 6l216 -420l214 417h23l-227 -442v-258h-20zM245 766l74 169l24 -3l-81 -168z" />
    <glyph glyph-name="Thorn" unicode="&#xde;" horiz-adv-x="527" 
d="M75 0v700h20v-134q40 12 79 18.5t77 6.5q53 0 99.5 -13.5t81.5 -43.5t55 -77t20 -114q0 -62 -21.5 -104.5t-59 -68.5t-87 -37t-104.5 -11q-70 0 -140 15v-137h-20zM95 157q36 -8 72 -12t68 -4q51 0 96.5 10t80 33.5t55 62.5t20.5 96q0 62 -18.5 105.5t-50.5 71t-75 40
t-92 12.5q-36 0 -75 -6t-81 -21v-388z" />
    <glyph glyph-name="germandbls" unicode="&#xdf;" horiz-adv-x="558" 
d="M172 47q13 -9 30.5 -16.5t37 -12.5t40.5 -8t40 -3q85 0 132 38t47 121q0 48 -13.5 80t-40.5 51.5t-67.5 28.5t-94.5 12l-2 21l33 2q28 2 55 10.5t48 25.5t33.5 44t12.5 65q0 39 -9.5 73t-30.5 59.5t-55.5 40t-85.5 14.5q-102 0 -144.5 -59.5t-42.5 -186.5v-447h-20v447
q0 135 47.5 200t159.5 65q56 0 94.5 -16.5t62 -45t34 -65.5t10.5 -79q0 -38 -13 -66.5t-34.5 -48t-49.5 -30t-57 -12.5q35 -3 67 -12q35 -8 62 -28t44 -54.5t17 -88.5q0 -93 -52.5 -135.5t-146.5 -42.5q-41 0 -86 11.5t-73 31.5z" />
    <glyph glyph-name="agrave" unicode="&#xe0;" horiz-adv-x="491" 
d="M53 0zM398 270l-18 -1q-68 -4 -124.5 -9t-97 -18.5t-63 -39.5t-22.5 -72q0 -38 12 -61.5t31.5 -37.5t45.5 -19t53 -5q37 0 64.5 9t48.5 26t37.5 42t32.5 57v129zM412 -4q-5 25 -8.5 51.5t-4.5 55.5q-14 -25 -30.5 -46t-38.5 -36.5t-50.5 -24t-64.5 -8.5q-74 0 -118 32.5
t-44 109.5q0 53 26 83.5t72 46t109.5 21t137.5 8.5v24q0 52 -13 87.5t-35 57.5t-50 31.5t-58 9.5q-75 0 -141 -36l-9 18q69 37 146 37q46 0 79.5 -15t56 -41.5t33.5 -64t11 -82.5v-190q0 -33 4 -64.5t10 -60.5zM256 598l-81 168l24 3l74 -169z" />
    <glyph glyph-name="aacute" unicode="&#xe1;" horiz-adv-x="491" 
d="M53 0zM398 270l-18 -1q-68 -4 -124.5 -9t-97 -18.5t-63 -39.5t-22.5 -72q0 -38 12 -61.5t31.5 -37.5t45.5 -19t53 -5q37 0 64.5 9t48.5 26t37.5 42t32.5 57v129zM412 -4q-5 25 -8.5 51.5t-4.5 55.5q-14 -25 -30.5 -46t-38.5 -36.5t-50.5 -24t-64.5 -8.5q-74 0 -118 32.5
t-44 109.5q0 53 26 83.5t72 46t109.5 21t137.5 8.5v24q0 52 -13 87.5t-35 57.5t-50 31.5t-58 9.5q-75 0 -141 -36l-9 18q69 37 146 37q46 0 79.5 -15t56 -41.5t33.5 -64t11 -82.5v-190q0 -33 4 -64.5t10 -60.5zM220 600l74 169l24 -3l-81 -168z" />
    <glyph glyph-name="acircumflex" unicode="&#xe2;" horiz-adv-x="491" 
d="M53 0zM398 270l-18 -1q-68 -4 -124.5 -9t-97 -18.5t-63 -39.5t-22.5 -72q0 -38 12 -61.5t31.5 -37.5t45.5 -19t53 -5q37 0 64.5 9t48.5 26t37.5 42t32.5 57v129zM412 -4q-5 25 -8.5 51.5t-4.5 55.5q-14 -25 -30.5 -46t-38.5 -36.5t-50.5 -24t-64.5 -8.5q-74 0 -118 32.5
t-44 109.5q0 53 26 83.5t72 46t109.5 21t137.5 8.5v24q0 52 -13 87.5t-35 57.5t-50 31.5t-58 9.5q-75 0 -141 -36l-9 18q69 37 146 37q46 0 79.5 -15t56 -41.5t33.5 -64t11 -82.5v-190q0 -33 4 -64.5t10 -60.5zM246 717l-155 -122l-15 14l160 125h20l160 -125l-15 -14z" />
    <glyph glyph-name="atilde" unicode="&#xe3;" horiz-adv-x="491" 
d="M53 0zM398 270l-18 -1q-68 -4 -124.5 -9t-97 -18.5t-63 -39.5t-22.5 -72q0 -38 12 -61.5t31.5 -37.5t45.5 -19t53 -5q37 0 64.5 9t48.5 26t37.5 42t32.5 57v129zM412 -4q-5 25 -8.5 51.5t-4.5 55.5q-14 -25 -30.5 -46t-38.5 -36.5t-50.5 -24t-64.5 -8.5q-74 0 -118 32.5
t-44 109.5q0 53 26 83.5t72 46t109.5 21t137.5 8.5v24q0 52 -13 87.5t-35 57.5t-50 31.5t-58 9.5q-75 0 -141 -36l-9 18q69 37 146 37q46 0 79.5 -15t56 -41.5t33.5 -64t11 -82.5v-190q0 -33 4 -64.5t10 -60.5zM315 598q-26 0 -44 9t-34 20t-32 20t-37 9q-29 0 -52.5 -13
t-43.5 -35l-15 13q20 23 47 38.5t64 15.5q25 0 43.5 -9t34.5 -20t32 -20t37 -9q29 0 52.5 13t43.5 35l15 -13q-20 -23 -47 -38.5t-64 -15.5z" />
    <glyph glyph-name="adieresis" unicode="&#xe4;" horiz-adv-x="491" 
d="M53 0zM398 270l-18 -1q-68 -4 -124.5 -9t-97 -18.5t-63 -39.5t-22.5 -72q0 -38 12 -61.5t31.5 -37.5t45.5 -19t53 -5q37 0 64.5 9t48.5 26t37.5 42t32.5 57v129zM412 -4q-5 25 -8.5 51.5t-4.5 55.5q-14 -25 -30.5 -46t-38.5 -36.5t-50.5 -24t-64.5 -8.5q-74 0 -118 32.5
t-44 109.5q0 53 26 83.5t72 46t109.5 21t137.5 8.5v24q0 52 -13 87.5t-35 57.5t-50 31.5t-58 9.5q-75 0 -141 -36l-9 18q69 37 146 37q46 0 79.5 -15t56 -41.5t33.5 -64t11 -82.5v-190q0 -33 4 -64.5t10 -60.5zM159 627q-19 0 -19 20q0 19 19 19t19 -19q0 -20 -19 -20z
M326 627q-19 0 -19 20q0 19 19 19t19 -19q0 -20 -19 -20z" />
    <glyph glyph-name="aring" unicode="&#xe5;" horiz-adv-x="491" 
d="M53 0zM398 270l-18 -1q-68 -4 -124.5 -9t-97 -18.5t-63 -39.5t-22.5 -72q0 -38 12 -61.5t31.5 -37.5t45.5 -19t53 -5q37 0 64.5 9t48.5 26t37.5 42t32.5 57v129zM412 -4q-5 25 -8.5 51.5t-4.5 55.5q-14 -25 -30.5 -46t-38.5 -36.5t-50.5 -24t-64.5 -8.5q-74 0 -118 32.5
t-44 109.5q0 53 26 83.5t72 46t109.5 21t137.5 8.5v24q0 52 -13 87.5t-35 57.5t-50 31.5t-58 9.5q-75 0 -141 -36l-9 18q69 37 146 37q46 0 79.5 -15t56 -41.5t33.5 -64t11 -82.5v-190q0 -33 4 -64.5t10 -60.5zM246 614q88 0 88 82t-88 82t-88 -82t88 -82zM246 595
q-108 0 -108 101q0 49 27 75t81 26t81 -26t27 -75q0 -101 -108 -101z" />
    <glyph glyph-name="ae" unicode="&#xe6;" horiz-adv-x="838" 
d="M380 269q-68 -4 -124.5 -9t-97 -18.5t-63 -39.5t-22.5 -72q0 -38 12 -61.5t31.5 -37.5t45.5 -19t53 -5q44 0 74.5 12t52.5 31.5t37 45t29 51.5q-10 43 -10 106v17zM761 28q-32 -21 -72.5 -30.5t-86.5 -9.5q-30 0 -58 6t-52.5 21t-44 40.5t-32.5 64.5q-14 -28 -31.5 -52
t-41 -42t-54.5 -28t-73 -10q-74 0 -118 32.5t-44 109.5q0 53 26 83.5t72 46t109.5 21t137.5 8.5v24q0 52 -13 87.5t-35 57.5t-50 31.5t-58 9.5q-75 0 -141 -36l-9 18q69 37 146 37q30 0 59 -8t52.5 -26.5t40 -48t22.5 -72.5q8 50 28 80.5t46 47t55 22t55 5.5q43 0 78 -13
t59 -43t37 -79.5t13 -121.5l-365 -33q3 -69 19.5 -112t42 -67.5t57.5 -33t65 -8.5q43 0 81 9t67 29zM763 278q-2 63 -13.5 105t-33 68t-52 37t-68.5 11q-35 0 -67 -9.5t-56.5 -36.5t-39.5 -75t-15 -125v-6z" />
    <glyph glyph-name="ccedilla" unicode="&#xe7;" horiz-adv-x="423" 
d="M187 -139q21 -8 44 -8q20 0 35.5 9t15.5 34q0 13 -6.5 21.5t-16 13t-21.5 7t-23 3.5l14 49q-94 8 -134 73t-40 190q0 135 47.5 200t159.5 65q73 0 116 -26l-10 -19q-39 26 -106 26q-101 0 -144 -60t-43 -186t43 -186t144 -60q67 0 106 26l10 -19q-43 -26 -116 -26h-13
l-9 -32q33 -6 47.5 -22t14.5 -37q0 -35 -22.5 -49t-51.5 -14q-23 0 -47 8z" />
    <glyph glyph-name="egrave" unicode="&#xe8;" horiz-adv-x="495" 
d="M55 0zM420 278q-2 63 -13.5 105t-33 68t-52 37t-68.5 11q-35 0 -67 -9.5t-56.5 -36.5t-39.5 -75t-15 -125v-6zM418 28q-32 -21 -72.5 -30.5t-86.5 -9.5q-39 0 -75.5 10.5t-65 40t-46 81t-17.5 133.5q0 88 19 140.5t48 80.5t64 36t67 8q43 0 78 -13t59 -43t37 -79.5
t13 -121.5l-365 -33q3 -69 19.5 -112t42 -67.5t57.5 -33t65 -8.5q43 0 81 9t67 29zM254 598l-81 168l24 3l74 -169z" />
    <glyph glyph-name="eacute" unicode="&#xe9;" horiz-adv-x="495" 
d="M55 0zM420 278q-2 63 -13.5 105t-33 68t-52 37t-68.5 11q-35 0 -67 -9.5t-56.5 -36.5t-39.5 -75t-15 -125v-6zM418 28q-32 -21 -72.5 -30.5t-86.5 -9.5q-39 0 -75.5 10.5t-65 40t-46 81t-17.5 133.5q0 88 19 140.5t48 80.5t64 36t67 8q43 0 78 -13t59 -43t37 -79.5
t13 -121.5l-365 -33q3 -69 19.5 -112t42 -67.5t57.5 -33t65 -8.5q43 0 81 9t67 29zM208 600l74 169l24 -3l-81 -168z" />
    <glyph glyph-name="ecircumflex" unicode="&#xea;" horiz-adv-x="495" 
d="M55 0zM420 278q-2 63 -13.5 105t-33 68t-52 37t-68.5 11q-35 0 -67 -9.5t-56.5 -36.5t-39.5 -75t-15 -125v-6zM418 28q-32 -21 -72.5 -30.5t-86.5 -9.5q-39 0 -75.5 10.5t-65 40t-46 81t-17.5 133.5q0 88 19 140.5t48 80.5t64 36t67 8q43 0 78 -13t59 -43t37 -79.5
t13 -121.5l-365 -33q3 -69 19.5 -112t42 -67.5t57.5 -33t65 -8.5q43 0 81 9t67 29zM248 717l-155 -122l-15 14l160 125h20l160 -125l-15 -14z" />
    <glyph glyph-name="edieresis" unicode="&#xeb;" horiz-adv-x="495" 
d="M55 0zM420 278q-2 63 -13.5 105t-33 68t-52 37t-68.5 11q-35 0 -67 -9.5t-56.5 -36.5t-39.5 -75t-15 -125v-6zM418 28q-32 -21 -72.5 -30.5t-86.5 -9.5q-39 0 -75.5 10.5t-65 40t-46 81t-17.5 133.5q0 88 19 140.5t48 80.5t64 36t67 8q43 0 78 -13t59 -43t37 -79.5
t13 -121.5l-365 -33q3 -69 19.5 -112t42 -67.5t57.5 -33t65 -8.5q43 0 81 9t67 29zM163 627q-19 0 -19 20q0 19 19 19t19 -19q0 -20 -19 -20zM330 627q-19 0 -19 20q0 19 19 19t19 -19q0 -20 -19 -20z" />
    <glyph glyph-name="igrave" unicode="&#xec;" horiz-adv-x="180" 
d="M3 0zM97 0q-10 37 -13.5 81t-3.5 95v327l20 3v-330q0 -50 3.5 -94.5t13.5 -81.5h-20zM84 598l-81 168l24 3l74 -169z" />
    <glyph glyph-name="iacute" unicode="&#xed;" horiz-adv-x="180" 
d="M76 0zM97 0q-10 37 -13.5 81t-3.5 95v327l20 3v-330q0 -50 3.5 -94.5t13.5 -81.5h-20zM76 600l74 169l24 -3l-81 -168z" />
    <glyph glyph-name="icircumflex" unicode="&#xee;" horiz-adv-x="180" 
d="M0 0zM97 0q-10 37 -13.5 81t-3.5 95v327l20 3v-330q0 -50 3.5 -94.5t13.5 -81.5h-20zM90 717l-155 -122l-15 14l160 125h20l160 -125l-15 -14z" />
    <glyph glyph-name="idieresis" unicode="&#xef;" horiz-adv-x="180" 
d="M0 0zM97 0q-10 37 -13.5 81t-3.5 95v327l20 3v-330q0 -50 3.5 -94.5t13.5 -81.5h-20zM7 627q-19 0 -19 20q0 19 19 19t19 -19q0 -20 -19 -20zM174 627q-19 0 -19 20q0 19 19 19t19 -19q0 -20 -19 -20z" />
    <glyph glyph-name="eth" unicode="&#xf0;" horiz-adv-x="524" 
d="M262 -12q-112 0 -159.5 65t-47.5 200t47.5 200t159.5 65q68 0 112.5 -24.5t64.5 -78.5q-11 59 -34.5 109t-56.5 88l-53 -51l-14 14l54 51q-58 61 -148 85l5 19q48 -13 87 -35.5t70 -54.5l66 63l14 -14l-67 -64q54 -63 80.5 -153.5t26.5 -205.5v-13q0 -135 -47.5 -200
t-159.5 -65zM262 7q102 0 144.5 60t42.5 186t-42.5 186t-144.5 60t-144.5 -60t-42.5 -186t42.5 -186t144.5 -60z" />
    <glyph glyph-name="ntilde" unicode="&#xf1;" horiz-adv-x="505" 
d="M61 0zM420 0v285q0 34 -3.5 71.5t-17.5 69t-42.5 52.5t-78.5 21q-36 0 -63.5 -9t-49 -26.5t-38.5 -42.5t-32 -57v-364h-20v381q0 33 -4 64.5t-10 60.5l20 4q5 -25 8.5 -51.5t4.5 -55.5q14 25 31 46t38.5 36.5t50 24t64.5 8.5q57 0 89.5 -23t48.5 -57.5t20 -75.5t4 -77
v-285h-20zM328 598q-26 0 -44 9t-34 20t-32 20t-37 9q-29 0 -52.5 -13t-43.5 -35l-15 13q20 23 47 38.5t64 15.5q25 0 43.5 -9t34.5 -20t32 -20t37 -9q29 0 52.5 13t43.5 35l15 -13q-20 -23 -47 -38.5t-64 -15.5z" />
    <glyph glyph-name="ograve" unicode="&#xf2;" horiz-adv-x="524" 
d="M55 0zM262 -12q-112 0 -159.5 65t-47.5 200t47.5 200t159.5 65t159.5 -65t47.5 -200t-47.5 -200t-159.5 -65zM262 7q102 0 144.5 60t42.5 186t-42.5 186t-144.5 60t-144.5 -60t-42.5 -186t42.5 -186t144.5 -60zM266 598l-81 168l24 3l74 -169z" />
    <glyph glyph-name="oacute" unicode="&#xf3;" horiz-adv-x="524" 
d="M55 0zM262 -12q-112 0 -159.5 65t-47.5 200t47.5 200t159.5 65t159.5 -65t47.5 -200t-47.5 -200t-159.5 -65zM262 7q102 0 144.5 60t42.5 186t-42.5 186t-144.5 60t-144.5 -60t-42.5 -186t42.5 -186t144.5 -60zM235 600l74 169l24 -3l-81 -168z" />
    <glyph glyph-name="ocircumflex" unicode="&#xf4;" horiz-adv-x="524" 
d="M55 0zM262 -12q-112 0 -159.5 65t-47.5 200t47.5 200t159.5 65t159.5 -65t47.5 -200t-47.5 -200t-159.5 -65zM262 7q102 0 144.5 60t42.5 186t-42.5 186t-144.5 60t-144.5 -60t-42.5 -186t42.5 -186t144.5 -60zM262 717l-155 -122l-15 14l160 125h20l160 -125l-15 -14z
" />
    <glyph glyph-name="otilde" unicode="&#xf5;" horiz-adv-x="524" 
d="M55 0zM262 -12q-112 0 -159.5 65t-47.5 200t47.5 200t159.5 65t159.5 -65t47.5 -200t-47.5 -200t-159.5 -65zM262 7q102 0 144.5 60t42.5 186t-42.5 186t-144.5 60t-144.5 -60t-42.5 -186t42.5 -186t144.5 -60zM336 598q-26 0 -44 9t-34 20t-32 20t-37 9q-29 0 -52.5 -13
t-43.5 -35l-15 13q20 23 47 38.5t64 15.5q25 0 43.5 -9t34.5 -20t32 -20t37 -9q29 0 52.5 13t43.5 35l15 -13q-20 -23 -47 -38.5t-64 -15.5z" />
    <glyph glyph-name="odieresis" unicode="&#xf6;" horiz-adv-x="524" 
d="M55 0zM262 -12q-112 0 -159.5 65t-47.5 200t47.5 200t159.5 65t159.5 -65t47.5 -200t-47.5 -200t-159.5 -65zM262 7q102 0 144.5 60t42.5 186t-42.5 186t-144.5 60t-144.5 -60t-42.5 -186t42.5 -186t144.5 -60zM179 627q-19 0 -19 20q0 19 19 19t19 -19q0 -20 -19 -20z
M346 627q-19 0 -19 20q0 19 19 19t19 -19q0 -20 -19 -20z" />
    <glyph glyph-name="divide" unicode="&#xf7;" 
d="M106 273v19h468v-19h-468zM340 447q-23 0 -23 24q0 23 23 23t23 -23q0 -24 -23 -24zM340 71q-23 0 -23 24q0 23 23 23t23 -23q0 -24 -23 -24z" />
    <glyph glyph-name="oslash" unicode="&#xf8;" horiz-adv-x="524" 
d="M262 -12q-65 0 -108 21l-37 -76h-22l42 87q-44 29 -63 87t-19 146q0 135 47.5 200t159.5 65q64 0 106 -21l38 76h22l-42 -87q44 -29 63.5 -87t19.5 -146q0 -135 -47.5 -200t-159.5 -65zM262 7q102 0 144.5 60t42.5 186t-42.5 186t-144.5 60t-144.5 -60t-42.5 -186
t42.5 -186t144.5 -60z" />
    <glyph glyph-name="ugrave" unicode="&#xf9;" horiz-adv-x="505" 
d="M65 0zM424 -4q-5 25 -8.5 51.5t-4.5 55.5q-14 -25 -31 -46t-38.5 -36.5t-50 -24t-64.5 -8.5q-57 0 -89.5 23t-48.5 57.5t-20 75.5t-4 77v282l20 3v-285q0 -34 3.5 -71.5t17.5 -69t42.5 -52.5t78.5 -21q36 0 63.5 9t49 26.5t38.5 42.5t32 57v361l20 3v-381q0 -33 4 -64.5
t10 -60.5zM253 598l-81 168l24 3l74 -169z" />
    <glyph glyph-name="uacute" unicode="&#xfa;" horiz-adv-x="505" 
d="M65 0zM424 -4q-5 25 -8.5 51.5t-4.5 55.5q-14 -25 -31 -46t-38.5 -36.5t-50 -24t-64.5 -8.5q-57 0 -89.5 23t-48.5 57.5t-20 75.5t-4 77v282l20 3v-285q0 -34 3.5 -71.5t17.5 -69t42.5 -52.5t78.5 -21q36 0 63.5 9t49 26.5t38.5 42.5t32 57v361l20 3v-381q0 -33 4 -64.5
t10 -60.5zM214 600l74 169l24 -3l-81 -168z" />
    <glyph glyph-name="ucircumflex" unicode="&#xfb;" horiz-adv-x="505" 
d="M65 0zM424 -4q-5 25 -8.5 51.5t-4.5 55.5q-14 -25 -31 -46t-38.5 -36.5t-50 -24t-64.5 -8.5q-57 0 -89.5 23t-48.5 57.5t-20 75.5t-4 77v282l20 3v-285q0 -34 3.5 -71.5t17.5 -69t42.5 -52.5t78.5 -21q36 0 63.5 9t49 26.5t38.5 42.5t32 57v361l20 3v-381q0 -33 4 -64.5
t10 -60.5zM250 717l-155 -122l-15 14l160 125h20l160 -125l-15 -14z" />
    <glyph glyph-name="udieresis" unicode="&#xfc;" horiz-adv-x="505" 
d="M65 0zM424 -4q-5 25 -8.5 51.5t-4.5 55.5q-14 -25 -31 -46t-38.5 -36.5t-50 -24t-64.5 -8.5q-57 0 -89.5 23t-48.5 57.5t-20 75.5t-4 77v282l20 3v-285q0 -34 3.5 -71.5t17.5 -69t42.5 -52.5t78.5 -21q36 0 63.5 9t49 26.5t38.5 42.5t32 57v361l20 3v-381q0 -33 4 -64.5
t10 -60.5zM164 627q-19 0 -19 20q0 19 19 19t19 -19q0 -20 -19 -20zM331 627q-19 0 -19 20q0 19 19 19t19 -19q0 -20 -19 -20z" />
    <glyph glyph-name="yacute" unicode="&#xfd;" horiz-adv-x="413" 
d="M27 0zM74 -145q45 23 76 58t48 87l-171 503l19 6l163 -482l158 482l19 -6l-166 -503q-38 -114 -137 -163zM185 600l74 169l24 -3l-81 -168z" />
    <glyph glyph-name="thorn" unicode="&#xfe;" horiz-adv-x="504" 
d="M95 47q35 -23 76 -31.5t83 -8.5q34 0 66 10.5t56 38t38.5 75t14.5 122.5q0 57 -7 102.5t-24.5 77.5t-46.5 49t-73 17q-36 0 -63.5 -9t-49 -26.5t-38.5 -42.5t-32 -57v-317zM75 -154v869l20 3v-314q13 25 30 46t38.5 36t50 23.5t64.5 8.5q50 0 83 -19t52.5 -53.5
t27.5 -83.5t8 -109q0 -80 -16 -131.5t-43 -81t-62.5 -41t-73.5 -11.5q-42 0 -83 8t-76 28v-178h-20z" />
    <glyph glyph-name="ydieresis" unicode="&#xff;" horiz-adv-x="413" 
d="M27 0zM74 -145q45 23 76 58t48 87l-171 503l19 6l163 -482l158 482l19 -6l-166 -503q-38 -114 -137 -163zM125 627q-19 0 -19 20q0 19 19 19t19 -19q0 -20 -19 -20zM292 627q-19 0 -19 20q0 19 19 19t19 -19q0 -20 -19 -20z" />
    <glyph glyph-name="dotlessi" unicode="&#x131;" horiz-adv-x="180" 
d="M97 0q-10 37 -13.5 81t-3.5 95v327l20 3v-330q0 -50 3.5 -94.5t13.5 -81.5h-20z" />
    <glyph glyph-name="Lslash" unicode="&#x141;" horiz-adv-x="519" 
d="M95 0v339l-60 -26v22l60 26v339h20v-330l122 54v-22l-122 -54v-329h357v-19h-377z" />
    <glyph glyph-name="lslash" unicode="&#x142;" horiz-adv-x="323" 
d="M166 0q-10 37 -13.5 81t-3.5 95v204l-107 -47v22l107 47v313l20 3v-307l112 49v-22l-112 -49v-213q0 -50 3.5 -94.5t13.5 -81.5h-20z" />
    <glyph glyph-name="OE" unicode="&#x152;" horiz-adv-x="1000" 
d="M577 0v186q-18 -103 -82 -150.5t-166 -47.5q-71 0 -122 22t-83.5 66.5t-47.5 112.5t-15 161t15 161t47.5 112.5t83.5 66.5t122 22q102 0 166 -48t82 -151v187h366v-19h-346v-297h287l-3 -19h-284v-346h346v-19h-366zM329 7q132 0 190 83t58 260t-58 260t-190 83t-190 -83
t-58 -260t58 -260t190 -83z" />
    <glyph glyph-name="oe" unicode="&#x153;" horiz-adv-x="889" 
d="M812 28q-32 -21 -72.5 -30.5t-86.5 -9.5q-32 0 -63.5 7.5t-57.5 26t-45.5 50.5t-27.5 82q-24 -166 -197 -166q-112 0 -159.5 65t-47.5 200t47.5 200t159.5 65q173 0 197 -166q8 53 28.5 85.5t47 50.5t56 24t56.5 6q43 0 78 -13t59 -43t37 -79.5t13 -121.5l-365 -33
q3 -69 19.5 -112t42 -67.5t57.5 -33t65 -8.5q43 0 81 9t67 29zM814 278q-2 63 -13.5 105t-33 68t-52 37t-68.5 11q-35 0 -67 -10t-56.5 -37t-39.5 -75t-15 -124v-6zM262 7q102 0 144.5 60t42.5 186t-42.5 186t-144.5 60t-144.5 -60t-42.5 -186t42.5 -186t144.5 -60z" />
    <glyph glyph-name="Scaron" unicode="&#x160;" horiz-adv-x="535" 
d="M42 0zM492 182q0 -54 -17.5 -91t-47 -60t-68 -33t-80.5 -10q-66 0 -128.5 15.5t-108.5 49.5l12 16q44 -32 103 -47t122 -15q38 0 73 9t61.5 29.5t42.5 54t16 82.5q0 40 -17 66.5t-44.5 44.5t-62.5 30.5t-71 23.5q-39 12 -77 26t-68 35t-48.5 51.5t-18.5 76.5
q0 50 17 83.5t45 54t65 29.5t76 9q46 0 93.5 -8.5t85.5 -29.5l-10 -17q-35 20 -80 28t-89 8q-36 0 -69 -8t-58.5 -26.5t-40.5 -48.5t-15 -74q0 -41 17 -68.5t45 -46t63.5 -31.5t72.5 -24q39 -12 76.5 -25.5t67 -33.5t47.5 -50t18 -75zM261 765l-160 125l15 14l155 -122
l155 122l15 -14l-160 -125h-20z" />
    <glyph glyph-name="scaron" unicode="&#x161;" horiz-adv-x="422" 
d="M41 0zM55 53q34 -23 76 -34.5t87 -11.5q61 0 99.5 30t38.5 96q0 28 -12 46.5t-31.5 31t-44 21t-50.5 16.5q-29 9 -57 19t-50 25t-35.5 37.5t-13.5 56.5q0 61 41.5 96.5t109.5 35.5q51 0 82 -9t48 -18l-9 -19q-11 7 -41.5 17t-79.5 10q-26 0 -50 -6.5t-42 -20.5
t-28.5 -35.5t-10.5 -50.5t12 -48t32 -32t45.5 -22t52.5 -17q28 -9 55.5 -19t49 -24.5t34.5 -36t13 -54.5q0 -70 -42.5 -107.5t-115.5 -37.5q-48 0 -93 11.5t-81 35.5zM201 600l-160 125l15 14l155 -122l155 122l15 -14l-160 -125h-20z" />
    <glyph glyph-name="Ydieresis" unicode="&#x178;" horiz-adv-x="526" 
d="M27 0zM252 0v258l-225 439l19 6l216 -420l214 417h23l-227 -442v-258h-20zM179 763q-19 0 -19 20q0 19 19 19t19 -19q0 -20 -19 -20zM346 763q-19 0 -19 20q0 19 19 19t19 -19q0 -20 -19 -20z" />
    <glyph glyph-name="Zcaron" unicode="&#x17d;" horiz-adv-x="527" 
d="M47 0zM53 0l-6 19l389 662h-381v19h398l6 -19l-389 -662h410l-4 -19h-423zM250 765l-160 125l15 14l155 -122l155 122l15 -14l-160 -125h-20z" />
    <glyph glyph-name="zcaron" unicode="&#x17e;" horiz-adv-x="428" 
d="M35 0zM41 0l-6 19l321 468h-305v19h325l5 -19l-321 -468h333l-3 -19h-349zM206 600l-160 125l15 14l155 -122l155 122l15 -14l-160 -125h-20z" />
    <glyph glyph-name="florin" unicode="&#x192;" horiz-adv-x="312" 
d="M146 -140h-20v609h-96v19h94q-4 20 -6.5 42t-2.5 45q0 27 5.5 51.5t19.5 43.5t38 30.5t60 11.5q14 0 30 -1.5t33 -6.5l-5 -19q-32 8 -58 8q-31 0 -51 -9.5t-31.5 -25.5t-16 -37.5t-4.5 -45.5q0 -20 2.5 -42t7.5 -45h121l-3 -19h-117v-609z" />
    <glyph glyph-name="uni02BB" unicode="&#x2bb;" horiz-adv-x="181" 
d="M42 409zM42 409l80 309h17l-74 -308z" />
    <glyph glyph-name="afii57929" unicode="&#x2bc;" horiz-adv-x="181" 
d="M42 409zM42 409l74 308l23 1l-80 -309h-17z" />
    <glyph glyph-name="circumflex" unicode="&#x2c6;" horiz-adv-x="420" 
d="M210 717l-155 -122l-15 14l160 125h20l160 -125l-15 -14z" />
    <glyph glyph-name="caron" unicode="&#x2c7;" horiz-adv-x="420" 
d="M200 600l-160 125l15 14l155 -122l155 122l15 -14l-160 -125h-20z" />
    <glyph glyph-name="breve" unicode="&#x2d8;" horiz-adv-x="360" 
d="M320 770q-2 -36 -10 -68t-24.5 -55.5t-42.5 -37.5t-63 -14t-63 14t-42.5 37.5t-24.5 55.5t-10 68l20 1q2 -33 9 -61.5t21 -50t36 -33.5t54 -12t54 12t36 33.5t21 50t9 61.5z" />
    <glyph glyph-name="dotaccent" unicode="&#x2d9;" horiz-adv-x="118" 
d="M59 627q-19 0 -19 20q0 19 19 19t19 -19q0 -20 -19 -20z" />
    <glyph glyph-name="ring" unicode="&#x2da;" horiz-adv-x="296" 
d="M148 614q88 0 88 82t-88 82t-88 -82t88 -82zM148 595q-108 0 -108 101q0 49 27 75t81 26t81 -26t27 -75q0 -101 -108 -101z" />
    <glyph glyph-name="ogonek" unicode="&#x2db;" horiz-adv-x="205" 
d="M165 -155q-21 -11 -56 -11q-27 0 -48 16t-21 48q0 30 18 55.5t45 46.5h23q-25 -20 -45 -44.5t-20 -54.5q0 -26 14.5 -38t36.5 -12q11 0 23.5 2t23.5 7z" />
    <glyph glyph-name="tilde" unicode="&#x2dc;" horiz-adv-x="449" 
d="M298 598q-26 0 -44 9t-34 20t-32 20t-37 9q-29 0 -52.5 -13t-43.5 -35l-15 13q20 23 47 38.5t64 15.5q25 0 43.5 -9t34.5 -20t32 -20t37 -9q29 0 52.5 13t43.5 35l15 -13q-20 -23 -47 -38.5t-64 -15.5z" />
    <glyph glyph-name="hungarumlaut" unicode="&#x2dd;" horiz-adv-x="328" 
d="M40 602l91 133l26 -4l-99 -134zM171 602l91 133l26 -4l-99 -134z" />
    <glyph glyph-name="gravecomb" unicode="&#x300;" horiz-adv-x="1" 
d="M-257 598l-81 168l24 3l74 -169z" />
    <glyph glyph-name="acutecomb" unicode="&#x301;" horiz-adv-x="1" 
d="M-288 600l74 169l24 -3l-81 -168z" />
    <glyph glyph-name="uni0302" unicode="&#x302;" horiz-adv-x="1" 
d="M-261 717l-155 -122l-15 14l160 125h20l160 -125l-15 -14z" />
    <glyph glyph-name="tildecomb" unicode="&#x303;" horiz-adv-x="1" 
d="M-187 598q-26 0 -44 9t-34 20t-32 20t-37 9q-29 0 -52.5 -13t-43.5 -35l-15 13q20 23 47 38.5t64 15.5q25 0 43.5 -9t34.5 -20t32 -20t37 -9q29 0 52.5 13t43.5 35l15 -13q-20 -23 -47 -38.5t-64 -15.5z" />
    <glyph glyph-name="uni0304" unicode="&#x304;" horiz-adv-x="1" 
d="M-383 637v19h314v-19h-314z" />
    <glyph glyph-name="uni0306" unicode="&#x306;" horiz-adv-x="1" 
d="M-39 775q-2 -36 -10 -68t-24.5 -55.5t-42.5 -37.5t-63 -14t-63 14t-42.5 37.5t-24.5 55.5t-10 68l20 1q2 -33 9 -61.5t21 -50t36 -33.5t54 -12t54 12t36 33.5t21 50t9 61.5z" />
    <glyph glyph-name="uni0307" unicode="&#x307;" horiz-adv-x="1" 
d="M-89 627q-19 0 -19 20q0 19 19 19t19 -19q0 -20 -19 -20z" />
    <glyph glyph-name="uni0308" unicode="&#x308;" horiz-adv-x="1" 
d="M-245 627q-19 0 -19 20q0 19 19 19t19 -19q0 -20 -19 -20zM-78 627q-19 0 -19 20q0 19 19 19t19 -19q0 -20 -19 -20z" />
    <glyph glyph-name="uni030A" unicode="&#x30a;" horiz-adv-x="1" 
d="M-147 614q88 0 88 82t-88 82t-88 -82t88 -82zM-147 595q-108 0 -108 101q0 49 27 75t81 26t81 -26t27 -75q0 -101 -108 -101z" />
    <glyph glyph-name="uni030B" unicode="&#x30b;" horiz-adv-x="1" 
d="M-287 603l91 133l26 -4l-99 -134zM-156 603l91 133l26 -4l-99 -134z" />
    <glyph glyph-name="uni030C" unicode="&#x30c;" horiz-adv-x="1" 
d="M-221 600l-160 125l15 14l155 -122l155 122l15 -14l-160 -125h-20z" />
    <glyph glyph-name="uni0312" unicode="&#x312;" horiz-adv-x="1" 
d="M-196 741l-32 -141l-23 -1l38 142h17z" />
    <glyph glyph-name="uni0326" unicode="&#x326;" horiz-adv-x="1" 
d="M-298 -194l32 141l23 1l-38 -142h-17z" />
    <glyph glyph-name="uni0327" unicode="&#x327;" horiz-adv-x="1" 
d="M-154 -139q21 -8 44 -8q20 0 35.5 9t15.5 34q0 13 -6.5 21.5t-16 13t-21.5 7t-23 3.5l17 59h21l-13 -44q33 -6 47.5 -22t14.5 -37q0 -35 -22.5 -49t-51.5 -14q-23 0 -47 8z" />
    <glyph glyph-name="uni0328" unicode="&#x328;" horiz-adv-x="1" 
d="M-39 -155q-21 -11 -56 -11q-27 0 -48 16t-21 48q0 30 18 55.5t45 46.5h23q-25 -20 -45 -44.5t-20 -54.5q0 -26 14.5 -38t36.5 -12q11 0 23.5 2t23.5 7z" />
    <glyph glyph-name="uni0335" unicode="&#x335;" horiz-adv-x="1" 
d="M-413 243v19h374v-19h-374z" />
    <glyph glyph-name="uni0336" unicode="&#x336;" horiz-adv-x="1" 
d="M-627 243v19h556v-19h-556z" />
    <glyph glyph-name="uni0394" unicode="&#x394;" horiz-adv-x="654" 
d="M72 0zM78 0l-6 19l246 687h18l246 -687l-4 -19h-500zM327 671l-234 -652h467z" />
    <glyph glyph-name="uni03A9" unicode="&#x3a9;" horiz-adv-x="752" 
d="M72 0zM455 0v19q40 19 71 45t53 64t33.5 92t11.5 130q0 177 -58 260t-190 83t-190 -83t-58 -260q0 -76 11.5 -130t33 -92t53 -64t71.5 -45v-19h-225v19h189q-48 25 -77.5 62t-46.5 80.5t-23 91.5t-6 97q0 93 15 161t47.5 112.5t83.5 66.5t122 22q142 0 205 -88.5
t63 -273.5q0 -49 -6 -97t-23 -91.5t-46.5 -80.5t-77.5 -62h189v-19h-225z" />
    <glyph glyph-name="uni03BC" unicode="&#x3bc;" horiz-adv-x="523" 
d="M72 0zM431 -4q-5 25 -8.5 51.5t-4.5 55.5q-14 -25 -31 -46t-38.5 -36.5t-50 -24t-64.5 -8.5q-60 0 -94.5 26t-47.5 71v-239h-20v657l20 3v-285q0 -34 3.5 -71.5t17.5 -69t42.5 -52.5t78.5 -21q36 0 63.5 9t49 26.5t38.5 42.5t32 57v361l20 3v-381q0 -33 4 -64.5t10 -60.5
z" />
    <glyph glyph-name="pi" unicode="&#x3c0;" horiz-adv-x="714" 
d="M579 -8q-45 33 -61 84t-16 111v300h-293v-487h-20v487h-117v19h570l-3 -19h-117v-300q0 -55 14 -102t55 -77z" />
    <glyph glyph-name="uni2007" unicode="&#x2007;" 
 />
    <glyph glyph-name="uni2008" unicode="&#x2008;" horiz-adv-x="190" 
 />
    <glyph glyph-name="uni200B" unicode="&#x200b;" horiz-adv-x="0" 
 />
    <glyph glyph-name="endash" unicode="&#x2013;" horiz-adv-x="573" 
d="M72 272v19h429v-19h-429z" />
    <glyph glyph-name="emdash" unicode="&#x2014;" horiz-adv-x="700" 
d="M72 272v19h556v-19h-556z" />
    <glyph glyph-name="quoteleft" unicode="&#x2018;" horiz-adv-x="181" 
d="M42 409l80 309h17l-74 -308z" />
    <glyph glyph-name="quoteright" unicode="&#x2019;" horiz-adv-x="181" 
d="M42 409l74 308l23 1l-80 -309h-17z" />
    <glyph glyph-name="quotesinglbase" unicode="&#x201a;" horiz-adv-x="181" 
d="M42 -140l74 308l23 1l-80 -309h-17z" />
    <glyph glyph-name="quotedblleft" unicode="&#x201c;" horiz-adv-x="316" 
d="M177 409l80 309h17l-74 -308zM42 409l80 309h17l-74 -308z" />
    <glyph glyph-name="quotedblright" unicode="&#x201d;" horiz-adv-x="316" 
d="M42 409l74 308l23 1l-80 -309h-17zM177 409l74 308l23 1l-80 -309h-17z" />
    <glyph glyph-name="quotedblbase" unicode="&#x201e;" horiz-adv-x="316" 
d="M42 -140l74 308l23 1l-80 -309h-17zM177 -140l74 308l23 1l-80 -309h-17z" />
    <glyph glyph-name="dagger" unicode="&#x2020;" horiz-adv-x="520" 
d="M250 0v453h-190v19h190v228l20 2v-230h190v-19h-190v-453h-20z" />
    <glyph glyph-name="daggerdbl" unicode="&#x2021;" horiz-adv-x="520" 
d="M250 0v241h-190v19h190v193h-190v19h190v228l20 2v-230h190v-19h-190v-193h190v-19h-190v-241h-20z" />
    <glyph glyph-name="bullet" unicode="&#x2022;" horiz-adv-x="218" 
d="M110 276q-50 0 -50 48q0 50 50 50q48 0 48 -50q0 -48 -48 -48z" />
    <glyph glyph-name="ellipsis" unicode="&#x2026;" horiz-adv-x="452" 
d="M90 -3q-23 0 -23 24q0 23 23 23t23 -23q0 -24 -23 -24zM226 -3q-23 0 -23 24q0 23 23 23t23 -23q0 -24 -23 -24zM362 -3q-23 0 -23 24q0 23 23 23t23 -23q0 -24 -23 -24z" />
    <glyph glyph-name="perthousand" unicode="&#x2030;" horiz-adv-x="1385" 
d="M1147 -12q-96 0 -137 57.5t-41 176.5q0 120 41 177.5t137 57.5t137 -57.5t41 -177.5q0 -119 -41 -176.5t-137 -57.5zM727 -12q-96 0 -137 57.5t-41 176.5q0 120 41 177.5t137 57.5t137 -57.5t41 -177.5q0 -119 -41 -176.5t-137 -57.5zM238 243q-96 0 -137 57.5t-41 176.5
q0 120 41 177.5t137 57.5t137 -57.5t41 -177.5q0 -119 -41 -176.5t-137 -57.5zM324 4l297 700l18 -8l-297 -700zM238 262q86 0 122 52t36 163q0 112 -36 164t-122 52t-122 -52t-36 -164q0 -111 36 -163t122 -52zM727 7q86 0 122 52t36 163q0 112 -36 164t-122 52t-122 -52
t-36 -164q0 -111 36 -163t122 -52zM1147 7q86 0 122 52t36 163q0 112 -36 164t-122 52t-122 -52t-36 -164q0 -111 36 -163t122 -52z" />
    <glyph glyph-name="minute" unicode="&#x2032;" horiz-adv-x="181" 
d="M42 409zM42 409l74 308l23 1l-80 -309h-17z" />
    <glyph glyph-name="second" unicode="&#x2033;" horiz-adv-x="316" 
d="M42 409zM42 409l74 308l23 1l-80 -309h-17zM177 409l74 308l23 1l-80 -309h-17z" />
    <glyph glyph-name="guilsinglleft" unicode="&#x2039;" horiz-adv-x="402" 
d="M60 259v20l277 201l5 -20l-263 -191l263 -192l-5 -19z" />
    <glyph glyph-name="guilsinglright" unicode="&#x203a;" horiz-adv-x="402" 
d="M60 77l263 192l-263 191l5 20l277 -201v-20l-277 -201z" />
    <glyph glyph-name="fraction" unicode="&#x2044;" horiz-adv-x="112" 
d="M-101 4l297 700l18 -8l-297 -700z" />
    <glyph glyph-name="uni2070" unicode="&#x2070;" horiz-adv-x="384" 
d="M192 298q-72 0 -102.5 49.5t-30.5 155.5q0 105 30.5 154.5t102.5 49.5t102.5 -49.5t30.5 -154.5q0 -106 -30.5 -155.5t-102.5 -49.5zM192 317q34 0 56 12.5t34.5 36.5t17.5 58.5t5 77.5t-5 77.5t-17.5 58.5t-34.5 37t-56 13q-35 0 -56.5 -13t-34.5 -37t-17.5 -58.5
t-4.5 -77.5t4.5 -77.5t17.5 -58.5t34.5 -36.5t56.5 -12.5z" />
    <glyph glyph-name="uni2074" unicode="&#x2074;" horiz-adv-x="350" 
d="M226 305v110h-173l-6 19q32 62 46.5 126.5t17.5 141.5l20 -4q-3 -75 -17.5 -139.5t-44.5 -124.5h157v168l20 3v-171h53v-19h-53v-110h-20z" />
    <glyph glyph-name="uni2075" unicode="&#x2075;" horiz-adv-x="345" 
d="M59 345q23 -14 49.5 -21t61.5 -7q54 0 79 29t25 77q0 50 -26.5 75.5t-77.5 25.5q-24 0 -47 -5t-49 -14l-11 18l18 177h183v-19h-165l-16 -153q42 15 88 15q58 0 90.5 -31t32.5 -90q0 -54 -29.5 -89t-93.5 -35q-38 0 -67.5 7.5t-53.5 21.5z" />
    <glyph glyph-name="uni2076" unicode="&#x2076;" horiz-adv-x="370" 
d="M77 480q2 -85 28 -124t85 -39q57 0 81.5 34.5t24.5 91.5q0 50 -25.5 79t-71.5 29q-39 0 -68.5 -15.5t-53.5 -55.5zM76 508q23 33 52.5 47.5t70.5 14.5q51 0 84 -33.5t33 -93.5q0 -30 -7 -56.5t-22 -46t-39 -31t-58 -11.5q-72 0 -102.5 49.5t-30.5 155.5t34.5 155t95.5 49
q26 0 49.5 -4t45.5 -18l-10 -17q-19 12 -39.5 16t-43.5 4q-57 0 -85 -46t-28 -134z" />
    <glyph glyph-name="uni2077" unicode="&#x2077;" horiz-adv-x="318" 
d="M121 305q1 55 7 107t20 99.5t37 90t59 79.5h-194v19h215l5 -19q-39 -36 -63.5 -78.5t-39 -90t-20 -99.5t-6.5 -108h-20z" />
    <glyph glyph-name="uni2078" unicode="&#x2078;" horiz-adv-x="366" 
d="M237 498q31 -10 52 -32t21 -58q0 -48 -31.5 -79t-95.5 -31q-32 0 -56 9.5t-39.5 25t-23.5 36.5t-8 45q0 31 16 57t56 40q-31 10 -48 33t-17 59q0 43 29.5 73.5t90.5 30.5q30 0 53 -9t38 -24.5t22.5 -35.5t7.5 -41q0 -32 -15 -58t-52 -41zM150 501q-43 -11 -58.5 -34.5
t-15.5 -51.5q0 -41 26.5 -69.5t80.5 -28.5t80.5 25t26.5 64q0 28 -13.5 44t-34.5 26t-45.5 15t-46.5 10zM216 506q37 14 52.5 37.5t15.5 52.5q0 36 -25 64t-76 28t-75.5 -25t-24.5 -62q0 -30 13.5 -47t34 -26t43.5 -13t42 -9z" />
    <glyph glyph-name="uni2079" unicode="&#x2079;" horiz-adv-x="369" 
d="M290 525q-2 85 -28 124t-85 39q-57 0 -81.5 -34.5t-24.5 -91.5q0 -50 25.5 -79t71.5 -29q39 0 68.5 15.5t53.5 55.5zM291 497q-23 -33 -52.5 -47.5t-70.5 -14.5q-51 0 -84 33.5t-33 93.5q0 30 7 56.5t22 46t39 31t58 11.5q72 0 102.5 -49.5t30.5 -155.5t-34.5 -155
t-95.5 -49q-26 0 -49.5 4t-45.5 18l10 17q19 -12 39.5 -16t43.5 -4q57 0 85 46t28 134z" />
    <glyph glyph-name="uni2080" unicode="&#x2080;" horiz-adv-x="384" 
d="M192 -204q-72 0 -102.5 49.5t-30.5 155.5q0 105 30.5 154.5t102.5 49.5t102.5 -49.5t30.5 -154.5q0 -106 -30.5 -155.5t-102.5 -49.5zM192 -185q34 0 56 12.5t34.5 36.5t17.5 58.5t5 77.5t-5 77.5t-17.5 58.5t-34.5 37t-56 13q-35 0 -56.5 -13t-34.5 -37t-17.5 -58.5
t-4.5 -77.5t4.5 -77.5t17.5 -58.5t34.5 -36.5t56.5 -12.5z" />
    <glyph glyph-name="uni2081" unicode="&#x2081;" horiz-adv-x="206" 
d="M93 0zM93 -196v392l20 3v-395h-20z" />
    <glyph glyph-name="uni2082" unicode="&#x2082;" horiz-adv-x="337" 
d="M53 0zM61 -196l-5 19q101 72 151.5 135.5t50.5 131.5q0 44 -23 70.5t-74 26.5q-53 0 -98 -27l-10 17q47 29 109 29q61 0 88.5 -33t27.5 -82q0 -70 -49.5 -136t-141.5 -132h191v-19h-217z" />
    <glyph glyph-name="uni2083" unicode="&#x2083;" horiz-adv-x="346" 
d="M50 0zM60 -156q50 -28 114 -28q56 0 81.5 31.5t25.5 74.5q0 40 -30 68.5t-100 28.5q-6 0 -13 -0.5t-14 -1.5l-10 20l138 143h-194v19h217l5 -19l-138 -142h9q40 0 68.5 -9.5t46.5 -25.5t26.5 -37t8.5 -44q0 -25 -7.5 -47.5t-23 -40t-39.5 -27.5t-57 -10q-36 0 -67 7
t-57 22z" />
    <glyph glyph-name="uni2084" unicode="&#x2084;" horiz-adv-x="350" 
d="M226 -197v110h-173l-6 19q32 62 46.5 126.5t17.5 141.5l20 -4q-3 -75 -17.5 -139.5t-44.5 -124.5h157v168l20 3v-171h53v-19h-53v-110h-20z" />
    <glyph glyph-name="uni2085" unicode="&#x2085;" horiz-adv-x="345" 
d="M59 -157q23 -14 49.5 -21t61.5 -7q54 0 79 29t25 77q0 50 -26.5 75.5t-77.5 25.5q-24 0 -47 -5t-49 -14l-11 18l18 177h183v-19h-165l-16 -153q42 15 88 15q58 0 90.5 -31t32.5 -90q0 -54 -29.5 -89t-93.5 -35q-38 0 -67.5 7.5t-53.5 21.5z" />
    <glyph glyph-name="uni2086" unicode="&#x2086;" horiz-adv-x="370" 
d="M77 -22q2 -85 28 -124t85 -39q57 0 81.5 34.5t24.5 91.5q0 50 -25.5 79t-71.5 29q-39 0 -68.5 -15.5t-53.5 -55.5zM76 6q23 33 52.5 47.5t70.5 14.5q51 0 84 -33.5t33 -93.5q0 -30 -7 -56.5t-22 -46t-39 -31t-58 -11.5q-72 0 -102.5 49.5t-30.5 155.5t34.5 155t95.5 49
q26 0 49.5 -4t45.5 -18l-10 -17q-19 12 -39.5 16t-43.5 4q-57 0 -85 -46t-28 -134z" />
    <glyph glyph-name="uni2087" unicode="&#x2087;" horiz-adv-x="318" 
d="M121 -197q1 55 7 107t20 99.5t37 90t59 79.5h-194v19h215l5 -19q-39 -36 -63.5 -78.5t-39 -90t-20 -99.5t-6.5 -108h-20z" />
    <glyph glyph-name="uni2088" unicode="&#x2088;" horiz-adv-x="366" 
d="M237 -4q31 -10 52 -32t21 -58q0 -48 -31.5 -79t-95.5 -31q-32 0 -56 9.5t-39.5 25t-23.5 36.5t-8 45q0 31 16 57t56 40q-31 10 -48 33t-17 59q0 43 29.5 73.5t90.5 30.5q30 0 53 -9t38 -24.5t22.5 -35.5t7.5 -41q0 -32 -15 -58t-52 -41zM150 -1q-43 -11 -58.5 -34.5
t-15.5 -51.5q0 -41 26.5 -69.5t80.5 -28.5t80.5 25t26.5 64q0 28 -13.5 44t-34.5 26t-45.5 15t-46.5 10zM216 4q37 14 52.5 37.5t15.5 52.5q0 36 -25 64t-76 28t-75.5 -25t-24.5 -62q0 -30 13.5 -47t34 -26t43.5 -13t42 -9z" />
    <glyph glyph-name="uni2089" unicode="&#x2089;" horiz-adv-x="369" 
d="M290 23q-2 85 -28 124t-85 39q-57 0 -81.5 -34.5t-24.5 -91.5q0 -50 25.5 -79t71.5 -29q39 0 68.5 15.5t53.5 55.5zM291 -5q-23 -33 -52.5 -47.5t-70.5 -14.5q-51 0 -84 33.5t-33 93.5q0 30 7 56.5t22 46t39 31t58 11.5q72 0 102.5 -49.5t30.5 -155.5t-34.5 -155
t-95.5 -49q-26 0 -49.5 4t-45.5 18l10 17q19 -12 39.5 -16t43.5 -4q57 0 85 46t28 134z" />
    <glyph glyph-name="Euro" unicode="&#x20ac;" 
d="M179 280q5 -71 21 -122.5t44.5 -85t71 -49.5t99.5 -16q42 0 79 8t69 28l11 -17q-35 -23 -76 -30.5t-83 -7.5q-125 0 -185.5 71t-70.5 221h-83v19h82q-2 12 -2 24v56q0 15 2 30h-82v19h83q4 58 18 109.5t43.5 90.5t77.5 61.5t120 22.5q42 0 81 -8.5t73 -29.5l-11 -17
q-29 19 -66.5 27.5t-78.5 8.5q-110 0 -168.5 -63t-68.5 -202h281v-19h-283q-1 -14 -1 -29v-57q0 -12 1 -24h283v-19h-281z" />
    <glyph glyph-name="trademark" unicode="&#x2122;" horiz-adv-x="648" 
d="M156 399v282h-107v19h234v-19h-107v-282h-20zM557 398l-18 259l-86 -258h-19l-89 258l-19 -258h-19l23 301h21l92 -273l89 273h22l24 -300z" />
    <glyph glyph-name="Omega" unicode="&#x2126;" horiz-adv-x="752" 
d="M455 0v19q40 19 71 45t53 64t33.5 92t11.5 130q0 177 -58 260t-190 83t-190 -83t-58 -260q0 -76 11.5 -130t33 -92t53 -64t71.5 -45v-19h-225v19h189q-48 25 -77.5 62t-46.5 80.5t-23 91.5t-6 97q0 93 15 161t47.5 112.5t83.5 66.5t122 22q142 0 205 -88.5t63 -273.5
q0 -49 -6 -97t-23 -91.5t-46.5 -80.5t-77.5 -62h189v-19h-225z" />
    <glyph glyph-name="uni2150" unicode="&#x2150;" horiz-adv-x="636" 
d="M93 305v392l20 3v-395h-20zM105 4l297 700l18 -8l-297 -700zM439 0q1 55 7 107t20 99.5t37 90t59 79.5h-194v19h215l5 -19q-39 -36 -63.5 -78.5t-39 -90t-20 -99.5t-6.5 -108h-20z" />
    <glyph glyph-name="uni2151" unicode="&#x2151;" horiz-adv-x="687" 
d="M93 305v392l20 3v-395h-20zM105 4l297 700l18 -8l-297 -700zM608 220q-2 85 -28 124t-85 39q-57 0 -81.5 -34.5t-24.5 -91.5q0 -50 25.5 -79t71.5 -29q39 0 68.5 15.5t53.5 55.5zM609 192q-23 -33 -52.5 -47.5t-70.5 -14.5q-51 0 -84 33.5t-33 93.5q0 30 7 56.5t22 46
t39 31t58 11.5q72 0 102.5 -49.5t30.5 -155.5t-34.5 -155t-95.5 -49q-26 0 -49.5 4t-45.5 18l10 17q19 -12 39.5 -16t43.5 -4q57 0 85 46t28 134z" />
    <glyph glyph-name="uni2152" unicode="&#x2152;" horiz-adv-x="868" 
d="M93 305v392l20 3v-395h-20zM105 4l297 700l18 -8l-297 -700zM411 0v392l20 3v-395h-20zM676 -7q-72 0 -102.5 49.5t-30.5 155.5q0 105 30.5 154.5t102.5 49.5t102.5 -49.5t30.5 -154.5q0 -106 -30.5 -155.5t-102.5 -49.5zM676 12q34 0 56 12.5t34.5 36.5t17.5 58.5
t5 77.5t-5 77.5t-17.5 58.5t-34.5 37t-56 13q-35 0 -56.5 -13t-34.5 -37t-17.5 -58.5t-4.5 -77.5t4.5 -77.5t17.5 -58.5t34.5 -36.5t56.5 -12.5z" />
    <glyph glyph-name="onethird" unicode="&#x2153;" horiz-adv-x="664" 
d="M93 0zM93 305v392l20 3v-395h-20zM105 4l297 700l18 -8l-297 -700zM378 41q50 -28 114 -28q56 0 81.5 31.5t25.5 74.5q0 40 -30 68.5t-100 28.5q-6 0 -13 -0.5t-14 -1.5l-10 20l138 143h-194v19h217l5 -19l-138 -142h9q40 0 68.5 -9.5t46.5 -25.5t26.5 -37t8.5 -44
q0 -25 -7.5 -47.5t-23 -40t-39.5 -27.5t-57 -10q-36 0 -67 7t-57 22z" />
    <glyph glyph-name="twothirds" unicode="&#x2154;" horiz-adv-x="795" 
d="M53 0zM61 305l-5 19q101 72 151.5 135.5t50.5 131.5q0 44 -23 70.5t-74 26.5q-53 0 -98 -27l-10 17q47 29 109 29q61 0 88.5 -33t27.5 -82q0 -70 -49.5 -136t-141.5 -132h191v-19h-217zM236 4l297 700l18 -8l-297 -700zM509 41q50 -28 114 -28q56 0 81.5 31.5t25.5 74.5
q0 40 -30 68.5t-100 28.5q-6 0 -13 -0.5t-14 -1.5l-10 20l138 143h-194v19h217l5 -19l-138 -142h9q40 0 68.5 -9.5t46.5 -25.5t26.5 -37t8.5 -44q0 -25 -7.5 -47.5t-23 -40t-39.5 -27.5t-57 -10q-36 0 -67 7t-57 22z" />
    <glyph glyph-name="uni2155" unicode="&#x2155;" horiz-adv-x="663" 
d="M93 305v392l20 3v-395h-20zM105 4l297 700l18 -8l-297 -700zM377 40q23 -14 49.5 -21t61.5 -7q54 0 79 29t25 77q0 50 -26.5 75.5t-77.5 25.5q-24 0 -47 -5t-49 -14l-11 18l18 177h183v-19h-165l-16 -153q42 15 88 15q58 0 90.5 -31t32.5 -90q0 -54 -29.5 -89t-93.5 -35
q-38 0 -67.5 7.5t-53.5 21.5z" />
    <glyph glyph-name="uni2156" unicode="&#x2156;" horiz-adv-x="794" 
d="M61 305l-5 19q101 72 151.5 135.5t50.5 131.5q0 44 -23 70.5t-74 26.5q-53 0 -98 -27l-10 17q47 29 109 29q61 0 88.5 -33t27.5 -82q0 -70 -49.5 -136t-141.5 -132h191v-19h-217zM236 4l297 700l18 -8l-297 -700zM508 40q23 -14 49.5 -21t61.5 -7q54 0 79 29t25 77
q0 50 -26.5 75.5t-77.5 25.5q-24 0 -47 -5t-49 -14l-11 18l18 177h183v-19h-165l-16 -153q42 15 88 15q58 0 90.5 -31t32.5 -90q0 -54 -29.5 -89t-93.5 -35q-38 0 -67.5 7.5t-53.5 21.5z" />
    <glyph glyph-name="uni2157" unicode="&#x2157;" horiz-adv-x="803" 
d="M60 345q50 -28 114 -28q56 0 81.5 31.5t25.5 74.5q0 40 -30 68.5t-100 28.5q-6 0 -13 -0.5t-14 -1.5l-10 20l138 143h-194v19h217l5 -19l-138 -142h9q40 0 68.5 -9.5t46.5 -25.5t26.5 -37t8.5 -44q0 -25 -7.5 -47.5t-23 -40t-39.5 -27.5t-57 -10q-36 0 -67 7t-57 22z
M245 4l297 700l18 -8l-297 -700zM517 40q23 -14 49.5 -21t61.5 -7q54 0 79 29t25 77q0 50 -26.5 75.5t-77.5 25.5q-24 0 -47 -5t-49 -14l-11 18l18 177h183v-19h-165l-16 -153q42 15 88 15q58 0 90.5 -31t32.5 -90q0 -54 -29.5 -89t-93.5 -35q-38 0 -67.5 7.5t-53.5 21.5z
" />
    <glyph glyph-name="uni2158" unicode="&#x2158;" horiz-adv-x="807" 
d="M226 305v110h-173l-6 19q32 62 46.5 126.5t17.5 141.5l20 -4q-3 -75 -17.5 -139.5t-44.5 -124.5h157v168l20 3v-171h53v-19h-53v-110h-20zM249 4l297 700l18 -8l-297 -700zM521 40q23 -14 49.5 -21t61.5 -7q54 0 79 29t25 77q0 50 -26.5 75.5t-77.5 25.5q-24 0 -47 -5
t-49 -14l-11 18l18 177h183v-19h-165l-16 -153q42 15 88 15q58 0 90.5 -31t32.5 -90q0 -54 -29.5 -89t-93.5 -35q-38 0 -67.5 7.5t-53.5 21.5z" />
    <glyph glyph-name="uni2159" unicode="&#x2159;" horiz-adv-x="688" 
d="M93 305v392l20 3v-395h-20zM105 4l297 700l18 -8l-297 -700zM395 175q2 -85 28 -124t85 -39q57 0 81.5 34.5t24.5 91.5q0 50 -25.5 79t-71.5 29q-39 0 -68.5 -15.5t-53.5 -55.5zM394 203q23 33 52.5 47.5t70.5 14.5q51 0 84 -33.5t33 -93.5q0 -30 -7 -56.5t-22 -46
t-39 -31t-58 -11.5q-72 0 -102.5 49.5t-30.5 155.5t34.5 155t95.5 49q26 0 49.5 -4t45.5 -18l-10 -17q-19 12 -39.5 16t-43.5 4q-57 0 -85 -46t-28 -134z" />
    <glyph glyph-name="uni215A" unicode="&#x215a;" horiz-adv-x="827" 
d="M59 345q23 -14 49.5 -21t61.5 -7q54 0 79 29t25 77q0 50 -26.5 75.5t-77.5 25.5q-24 0 -47 -5t-49 -14l-11 18l18 177h183v-19h-165l-16 -153q42 15 88 15q58 0 90.5 -31t32.5 -90q0 -54 -29.5 -89t-93.5 -35q-38 0 -67.5 7.5t-53.5 21.5zM244 4l297 700l18 -8l-297 -700
zM534 175q2 -85 28 -124t85 -39q57 0 81.5 34.5t24.5 91.5q0 50 -25.5 79t-71.5 29q-39 0 -68.5 -15.5t-53.5 -55.5zM533 203q23 33 52.5 47.5t70.5 14.5q51 0 84 -33.5t33 -93.5q0 -30 -7 -56.5t-22 -46t-39 -31t-58 -11.5q-72 0 -102.5 49.5t-30.5 155.5t34.5 155t95.5 49
q26 0 49.5 -4t45.5 -18l-10 -17q-19 12 -39.5 16t-43.5 4q-57 0 -85 -46t-28 -134z" />
    <glyph glyph-name="oneeighth" unicode="&#x215b;" horiz-adv-x="684" 
d="M93 305v392l20 3v-395h-20zM105 4l297 700l18 -8l-297 -700zM555 193q31 -10 52 -32t21 -58q0 -48 -31.5 -79t-95.5 -31q-32 0 -56 9.5t-39.5 25t-23.5 36.5t-8 45q0 31 16 57t56 40q-31 10 -48 33t-17 59q0 43 29.5 73.5t90.5 30.5q30 0 53 -9t38 -24.5t22.5 -35.5
t7.5 -41q0 -32 -15 -58t-52 -41zM468 196q-43 -11 -58.5 -34.5t-15.5 -51.5q0 -41 26.5 -69.5t80.5 -28.5t80.5 25t26.5 64q0 28 -13.5 44t-34.5 26t-45.5 15t-46.5 10zM534 201q37 14 52.5 37.5t15.5 52.5q0 36 -25 64t-76 28t-75.5 -25t-24.5 -62q0 -30 13.5 -47t34 -26
t43.5 -13t42 -9z" />
    <glyph glyph-name="threeeighths" unicode="&#x215c;" horiz-adv-x="824" 
d="M60 345q50 -28 114 -28q56 0 81.5 31.5t25.5 74.5q0 40 -30 68.5t-100 28.5q-6 0 -13 -0.5t-14 -1.5l-10 20l138 143h-194v19h217l5 -19l-138 -142h9q40 0 68.5 -9.5t46.5 -25.5t26.5 -37t8.5 -44q0 -25 -7.5 -47.5t-23 -40t-39.5 -27.5t-57 -10q-36 0 -67 7t-57 22z
M245 4l297 700l18 -8l-297 -700zM695 193q31 -10 52 -32t21 -58q0 -48 -31.5 -79t-95.5 -31q-32 0 -56 9.5t-39.5 25t-23.5 36.5t-8 45q0 31 16 57t56 40q-31 10 -48 33t-17 59q0 43 29.5 73.5t90.5 30.5q30 0 53 -9t38 -24.5t22.5 -35.5t7.5 -41q0 -32 -15 -58t-52 -41z
M608 196q-43 -11 -58.5 -34.5t-15.5 -51.5q0 -41 26.5 -69.5t80.5 -28.5t80.5 25t26.5 64q0 28 -13.5 44t-34.5 26t-45.5 15t-46.5 10zM674 201q37 14 52.5 37.5t15.5 52.5q0 36 -25 64t-76 28t-75.5 -25t-24.5 -62q0 -30 13.5 -47t34 -26t43.5 -13t42 -9z" />
    <glyph glyph-name="fiveeighths" unicode="&#x215d;" horiz-adv-x="823" 
d="M59 345q23 -14 49.5 -21t61.5 -7q54 0 79 29t25 77q0 50 -26.5 75.5t-77.5 25.5q-24 0 -47 -5t-49 -14l-11 18l18 177h183v-19h-165l-16 -153q42 15 88 15q58 0 90.5 -31t32.5 -90q0 -54 -29.5 -89t-93.5 -35q-38 0 -67.5 7.5t-53.5 21.5zM244 4l297 700l18 -8l-297 -700
zM694 193q31 -10 52 -32t21 -58q0 -48 -31.5 -79t-95.5 -31q-32 0 -56 9.5t-39.5 25t-23.5 36.5t-8 45q0 31 16 57t56 40q-31 10 -48 33t-17 59q0 43 29.5 73.5t90.5 30.5q30 0 53 -9t38 -24.5t22.5 -35.5t7.5 -41q0 -32 -15 -58t-52 -41zM607 196q-43 -11 -58.5 -34.5
t-15.5 -51.5q0 -41 26.5 -69.5t80.5 -28.5t80.5 25t26.5 64q0 28 -13.5 44t-34.5 26t-45.5 15t-46.5 10zM673 201q37 14 52.5 37.5t15.5 52.5q0 36 -25 64t-76 28t-75.5 -25t-24.5 -62q0 -30 13.5 -47t34 -26t43.5 -13t42 -9z" />
    <glyph glyph-name="seveneighths" unicode="&#x215e;" horiz-adv-x="726" 
d="M121 305q1 55 7 107t20 99.5t37 90t59 79.5h-194v19h215l5 -19q-39 -36 -63.5 -78.5t-39 -90t-20 -99.5t-6.5 -108h-20zM147 4l297 700l18 -8l-297 -700zM597 193q31 -10 52 -32t21 -58q0 -48 -31.5 -79t-95.5 -31q-32 0 -56 9.5t-39.5 25t-23.5 36.5t-8 45q0 31 16 57
t56 40q-31 10 -48 33t-17 59q0 43 29.5 73.5t90.5 30.5q30 0 53 -9t38 -24.5t22.5 -35.5t7.5 -41q0 -32 -15 -58t-52 -41zM510 196q-43 -11 -58.5 -34.5t-15.5 -51.5q0 -41 26.5 -69.5t80.5 -28.5t80.5 25t26.5 64q0 28 -13.5 44t-34.5 26t-45.5 15t-46.5 10zM576 201
q37 14 52.5 37.5t15.5 52.5q0 36 -25 64t-76 28t-75.5 -25t-24.5 -62q0 -30 13.5 -47t34 -26t43.5 -13t42 -9z" />
    <glyph glyph-name="uni215F" unicode="&#x215f;" horiz-adv-x="318" 
d="M93 0zM93 305v392l20 3v-395h-20zM105 4l297 700l18 -8l-297 -700z" />
    <glyph glyph-name="uni2189" unicode="&#x2189;" horiz-adv-x="842" 
d="M192 298q-72 0 -102.5 49.5t-30.5 155.5q0 105 30.5 154.5t102.5 49.5t102.5 -49.5t30.5 -154.5q0 -106 -30.5 -155.5t-102.5 -49.5zM192 317q34 0 56 12.5t34.5 36.5t17.5 58.5t5 77.5t-5 77.5t-17.5 58.5t-34.5 37t-56 13q-35 0 -56.5 -13t-34.5 -37t-17.5 -58.5
t-4.5 -77.5t4.5 -77.5t17.5 -58.5t34.5 -36.5t56.5 -12.5zM283 4l297 700l18 -8l-297 -700zM556 40q50 -28 114 -28q56 0 81.5 31.5t25.5 74.5q0 40 -30 68.5t-100 28.5q-6 0 -13 -0.5t-14 -1.5l-10 20l138 143h-194v19h217l5 -19l-138 -142h9q40 0 68.5 -9.5t46.5 -25.5
t26.5 -37t8.5 -44q0 -25 -7.5 -47.5t-23 -40t-39.5 -27.5t-57 -10q-36 0 -67 7t-57 22z" />
    <glyph glyph-name="partialdiff" unicode="&#x2202;" horiz-adv-x="558" 
d="M279 -12q-112 0 -159.5 65t-47.5 200t47.5 200t159.5 65q68 0 112.5 -24.5t64.5 -78.5q-11 54 -31 101t-51 85.5t-73 66.5t-97 43l5 19q80 -21 133 -68.5t85 -110.5t45.5 -136.5t13.5 -148.5v-13q0 -135 -47.5 -200t-159.5 -65zM279 7q102 0 144.5 60t42.5 186t-42.5 186
t-144.5 60t-144.5 -60t-42.5 -186t42.5 -186t144.5 -60z" />
    <glyph glyph-name="Delta" unicode="&#x2206;" horiz-adv-x="654" 
d="M78 0l-6 19l246 687h18l246 -687l-4 -19h-500zM327 671l-234 -652h467z" />
    <glyph glyph-name="product" unicode="&#x220f;" horiz-adv-x="581" 
d="M486 -140v821h-391v-821h-20v840h431v-840h-20z" />
    <glyph glyph-name="summation" unicode="&#x2211;" horiz-adv-x="543" 
d="M79 -140l-7 19l276 401l-276 401l7 19h392v-19h-373l267 -391v-20l-268 -391h374v-19h-392z" />
    <glyph glyph-name="minus" unicode="&#x2212;" 
d="M106 272v19h468v-19h-468z" />
    <glyph glyph-name="uni2219" unicode="&#x2219;" 
d="M291 239zM341 239q-50 0 -50 48q0 50 50 50q48 0 48 -50q0 -48 -48 -48z" />
    <glyph glyph-name="radical" unicode="&#x221a;" horiz-adv-x="737" 
d="M372 -140l-136 412h-164v19h178l130 -397l265 808l20 -4l-277 -838h-16z" />
    <glyph glyph-name="infinity" unicode="&#x221e;" horiz-adv-x="854" 
d="M427 247q-22 -63 -66 -100t-107 -37q-38 0 -71 10.5t-58 32t-39 54t-14 75.5t14 75.5t38.5 54.5t58 32.5t71.5 10.5q64 0 107.5 -38.5t65.5 -101.5q22 63 65.5 101.5t107.5 38.5q37 0 70.5 -10.5t58 -32t39 -53.5t14.5 -75q0 -44 -14 -76.5t-38.5 -54t-58 -32.5
t-71.5 -11q-64 0 -107.5 37t-65.5 100zM437 282q16 -69 57.5 -111t105.5 -42q33 0 62.5 9.5t51.5 28.5t35 48t13 67q0 39 -12.5 67.5t-34.5 48t-51.5 29t-63.5 9.5q-63 0 -105 -42.5t-58 -111.5zM417 282q-16 69 -58 111.5t-105 42.5q-34 0 -63.5 -9.5t-51.5 -28.5
t-34.5 -47.5t-12.5 -66.5q0 -39 12.5 -68t34.5 -48.5t51.5 -29t63.5 -9.5q64 0 105.5 42t57.5 111z" />
    <glyph glyph-name="integral" unicode="&#x222b;" horiz-adv-x="380" 
d="M106 -121q25 0 40 5.5t22.5 17t9.5 28t2 37.5v626q0 26 3.5 46t13.5 33.5t28.5 20.5t48.5 7h34v-19h-34q-26 0 -40.5 -5.5t-22 -17t-9.5 -28t-2 -37.5v-626q0 -26 -3.5 -46t-13.5 -33.5t-28.5 -20.5t-48.5 -7h-34v19h34z" />
    <glyph glyph-name="approxequal" unicode="&#x2248;" 
d="M574 379q-35 -18 -66.5 -26t-62.5 -8q-32 0 -57.5 7t-50 15t-49 15t-53.5 7q-61 0 -129 -37v22q35 18 66.5 26t62.5 8t57 -7t50.5 -15t49 -15t53.5 -7q61 0 129 37v-22zM574 190q-35 -18 -66.5 -26t-62.5 -8q-32 0 -57.5 7t-50 15t-49 15t-53.5 7q-61 0 -129 -37v22
q35 18 66.5 26t62.5 8t57 -7t50.5 -15t49 -15t53.5 -7q61 0 129 37v-22z" />
    <glyph glyph-name="notequal" unicode="&#x2260;" 
d="M374 386h200v-19h-205l-49 -170h254v-19h-260l-35 -124h-21l35 124h-187v19h193l49 170h-242v19h247l31 107h21z" />
    <glyph glyph-name="lessequal" unicode="&#x2264;" 
d="M105 0v19h470v-19h-470zM105 279v20l461 195l8 -19l-446 -186l446 -186l-8 -19z" />
    <glyph glyph-name="greaterequal" unicode="&#x2265;" 
d="M105 0v19h470v-19h-470zM114 84l-8 19l446 186l-446 186l8 18l461 -194v-20z" />
    <glyph glyph-name="dotmath" unicode="&#x22c5;" 
d="M317 265zM340 265q-23 0 -23 24q0 23 23 23t23 -23q0 -24 -23 -24z" />
    <glyph glyph-name="lozenge" unicode="&#x25ca;" horiz-adv-x="659" 
d="M321 -6l-249 355l249 357h18l248 -356l-248 -356h-18zM564 350l-234 335l-234 -335l234 -335z" />
    <glyph glyph-name="uniFB00" unicode="&#xfb00;" horiz-adv-x="615" 
d="M427 506q-4 20 -6.5 42t-2.5 45q0 27 5.5 51.5t19.5 43.5t38 30.5t60 11.5q14 0 30 -1.5t33 -6.5l-5 -19q-32 8 -58 8q-31 0 -51 -9.5t-31.5 -25.5t-16 -37.5t-4.5 -45.5q0 -20 2.5 -42t7.5 -45h121l-3 -19h-117v-487h-20v487h-283v-487h-20v487h-96v19h94q-4 20 -6.5 42
t-2.5 45q0 27 5.5 51.5t19.5 43.5t38 30.5t60 11.5q14 0 30 -1.5t33 -6.5l-5 -19q-32 8 -58 8q-31 0 -51 -9.5t-31.5 -25.5t-16 -37.5t-4.5 -45.5q0 -20 2.5 -42t7.5 -45h282z" />
    <glyph glyph-name="fi" unicode="&#xfb01;" horiz-adv-x="529" 
d="M446 0q-10 37 -13.5 81t-3.5 95v311h-283v-487h-20v487h-96v19h94q-4 20 -6.5 42t-2.5 45q0 27 5.5 51.5t19.5 43.5t38 30.5t60 11.5q14 0 30 -1.5t33 -6.5l-5 -19q-32 8 -58 8q-31 0 -51 -9.5t-31.5 -25.5t-16 -37.5t-4.5 -45.5q0 -20 2.5 -42t7.5 -45h304v-330
q0 -50 3.5 -94.5t13.5 -81.5h-20zM439 627q-19 0 -19 20q0 19 19 19t19 -19q0 -20 -19 -20z" />
    <glyph glyph-name="fl" unicode="&#xfb02;" horiz-adv-x="528" 
d="M30 0zM126 0v487h-96v19h94q-4 20 -6.5 42t-2.5 45q0 27 5.5 51.5t19.5 43.5t38 30.5t60 11.5q14 0 30 -1.5t33 -6.5l-5 -19q-32 8 -58 8q-31 0 -51 -9.5t-31.5 -25.5t-16 -37.5t-4.5 -45.5q0 -20 2.5 -42t7.5 -45h121l-3 -19h-117v-487h-20zM445 0q-10 37 -13.5 81
t-3.5 95v539l20 3v-542q0 -50 3.5 -94.5t13.5 -81.5h-20z" />
    <glyph glyph-name="uniFB03" unicode="&#xfb03;" horiz-adv-x="832" 
d="M427 506q-4 20 -6.5 42t-2.5 45q0 27 5.5 51.5t19.5 43.5t38 30.5t60 11.5q14 0 30 -1.5t33 -6.5l-5 -19q-32 8 -58 8q-31 0 -51 -9.5t-31.5 -25.5t-16 -37.5t-4.5 -45.5q0 -20 2.5 -42t7.5 -45h304v-330q0 -50 3.5 -94.5t13.5 -81.5h-20q-10 37 -13.5 81t-3.5 95v311
h-283v-487h-20v487h-283v-487h-20v487h-96v19h94q-4 20 -6.5 42t-2.5 45q0 27 5.5 51.5t19.5 43.5t38 30.5t60 11.5q14 0 30 -1.5t33 -6.5l-5 -19q-32 8 -58 8q-31 0 -51 -9.5t-31.5 -25.5t-16 -37.5t-4.5 -45.5q0 -20 2.5 -42t7.5 -45h282zM742 627q-19 0 -19 20
q0 19 19 19t19 -19q0 -20 -19 -20z" />
    <glyph glyph-name="uniFB04" unicode="&#xfb04;" horiz-adv-x="832" 
d="M427 506q-4 20 -6.5 42t-2.5 45q0 27 5.5 51.5t19.5 43.5t38 30.5t60 11.5q14 0 30 -1.5t33 -6.5l-5 -19q-32 8 -58 8q-31 0 -51 -9.5t-31.5 -25.5t-16 -37.5t-4.5 -45.5q0 -20 2.5 -42t7.5 -45h121l-3 -19h-117v-487h-20v487h-283v-487h-20v487h-96v19h94q-4 20 -6.5 42
t-2.5 45q0 27 5.5 51.5t19.5 43.5t38 30.5t60 11.5q14 0 30 -1.5t33 -6.5l-5 -19q-32 8 -58 8q-31 0 -51 -9.5t-31.5 -25.5t-16 -37.5t-4.5 -45.5q0 -20 2.5 -42t7.5 -45h282zM748 0q-10 37 -13.5 81t-3.5 95v539l20 3v-542q0 -50 3.5 -94.5t13.5 -81.5h-20z" />
    <glyph glyph-name="uniFEFF" unicode="&#xfeff;" horiz-adv-x="0" 
 />
    <glyph glyph-name="gravecomb.case" horiz-adv-x="1" 
d="M-323 764l-81 168l24 3l74 -169z" />
    <glyph glyph-name="acutecomb.case" horiz-adv-x="1" 
d="M-360 766l74 169l24 -3l-81 -168z" />
    <glyph glyph-name="uni0302.case" horiz-adv-x="1" 
d="M-328 883l-155 -122l-15 14l160 125h20l160 -125l-15 -14z" />
    <glyph glyph-name="tildecomb.case" horiz-adv-x="1" 
d="M-255 768q-26 0 -44 9t-34 20t-32 20t-37 9q-29 0 -52.5 -13t-43.5 -35l-15 13q20 23 47 38.5t64 15.5q25 0 43.5 -9t34.5 -20t32 -20t37 -9q29 0 52.5 13t43.5 35l15 -13q-20 -23 -47 -38.5t-64 -15.5z" />
    <glyph glyph-name="uni0308.case" horiz-adv-x="1" 
d="M-245 763q-19 0 -19 20q0 19 19 19t19 -19q0 -20 -19 -20zM-78 763q-19 0 -19 20q0 19 19 19t19 -19q0 -20 -19 -20z" />
    <glyph glyph-name="uni030C.case" horiz-adv-x="1" 
d="M-276 765l-160 125l15 14l155 -122l155 122l15 -14l-160 -125h-20z" />
    <glyph glyph-name=".ttfautohint" horiz-adv-x="1" 
d="M0 0z" />
    </font>
</defs>
</svg>
